<mxfile host="65bd71144e">
    <diagram id="eBW9vio6QBzmackI49Wi" name="Page-1">
        <mxGraphModel dx="1505" dy="1444" grid="1" gridSize="10" guides="1" tooltips="1" connect="1" arrows="1" fold="1" page="1" pageScale="1" pageWidth="4681" pageHeight="3300" math="0" shadow="0">
            <root>
                <mxCell id="0"/>
                <mxCell id="1" parent="0"/>
                <mxCell id="105" value="" style="group" parent="1" vertex="1" connectable="0">
                    <mxGeometry x="890" y="310" width="110" height="300" as="geometry"/>
                </mxCell>
                <mxCell id="94" value="" style="rounded=0;whiteSpace=wrap;html=1;" parent="105" vertex="1">
                    <mxGeometry width="55" height="60" as="geometry"/>
                </mxCell>
                <mxCell id="95" value="" style="rounded=0;whiteSpace=wrap;html=1;" parent="105" vertex="1">
                    <mxGeometry y="60" width="55" height="60" as="geometry"/>
                </mxCell>
                <mxCell id="96" value="" style="rounded=0;whiteSpace=wrap;html=1;" parent="105" vertex="1">
                    <mxGeometry y="120" width="55" height="60" as="geometry"/>
                </mxCell>
                <mxCell id="97" value="" style="rounded=0;whiteSpace=wrap;html=1;" parent="105" vertex="1">
                    <mxGeometry y="180" width="55" height="60" as="geometry"/>
                </mxCell>
                <mxCell id="99" value="" style="rounded=0;whiteSpace=wrap;html=1;" parent="105" vertex="1">
                    <mxGeometry y="240" width="55" height="60" as="geometry"/>
                </mxCell>
                <mxCell id="100" value="" style="rounded=0;whiteSpace=wrap;html=1;" parent="105" vertex="1">
                    <mxGeometry x="55" width="55" height="60" as="geometry"/>
                </mxCell>
                <mxCell id="101" value="" style="rounded=0;whiteSpace=wrap;html=1;" parent="105" vertex="1">
                    <mxGeometry x="55" y="60" width="55" height="60" as="geometry"/>
                </mxCell>
                <mxCell id="102" value="" style="rounded=0;whiteSpace=wrap;html=1;" parent="105" vertex="1">
                    <mxGeometry x="55" y="120" width="55" height="60" as="geometry"/>
                </mxCell>
                <mxCell id="103" value="" style="rounded=0;whiteSpace=wrap;html=1;" parent="105" vertex="1">
                    <mxGeometry x="55" y="180" width="55" height="60" as="geometry"/>
                </mxCell>
                <mxCell id="104" value="" style="rounded=0;whiteSpace=wrap;html=1;" parent="105" vertex="1">
                    <mxGeometry x="55" y="240" width="55" height="60" as="geometry"/>
                </mxCell>
                <mxCell id="111" value="1" style="text;html=1;align=center;verticalAlign=middle;resizable=0;points=[];autosize=1;strokeColor=none;fillColor=none;fontSize=20;" parent="105" vertex="1">
                    <mxGeometry x="12.5" y="15" width="30" height="30" as="geometry"/>
                </mxCell>
                <mxCell id="112" value="2" style="text;html=1;align=center;verticalAlign=middle;resizable=0;points=[];autosize=1;strokeColor=none;fillColor=none;fontSize=20;" parent="105" vertex="1">
                    <mxGeometry x="12.5" y="80" width="30" height="30" as="geometry"/>
                </mxCell>
                <mxCell id="113" value="3" style="text;html=1;align=center;verticalAlign=middle;resizable=0;points=[];autosize=1;strokeColor=none;fillColor=none;fontSize=20;" parent="105" vertex="1">
                    <mxGeometry x="12.5" y="135" width="30" height="30" as="geometry"/>
                </mxCell>
                <mxCell id="114" value="4" style="text;html=1;align=center;verticalAlign=middle;resizable=0;points=[];autosize=1;strokeColor=none;fillColor=none;fontSize=20;" parent="105" vertex="1">
                    <mxGeometry x="12.5" y="200" width="30" height="30" as="geometry"/>
                </mxCell>
                <mxCell id="115" value="5" style="text;html=1;align=center;verticalAlign=middle;resizable=0;points=[];autosize=1;strokeColor=none;fillColor=none;fontSize=20;" parent="105" vertex="1">
                    <mxGeometry x="12.5" y="255" width="30" height="30" as="geometry"/>
                </mxCell>
                <mxCell id="2" value="" style="shape=image;verticalLabelPosition=bottom;labelBackgroundColor=#ffffff;verticalAlign=top;aspect=fixed;imageAspect=0;image=data:image/png,iVBORw0KGgoAAAANSUhEUgAAAK4AAAEACAYAAAAqbU3EAAAKrGlDQ1BJQ0MgUHJvZmlsZQAASImVlwdUk8kWx+f70hstIXQIvQnSCSAl9ABKrzZCEiCUGAJBwAIiiyuwoqiIgLqiCyIKNoqsFVEsLIqKYl2QRUVdFwuiovI+4BDcfee9d949Z8788s+de+/Mmcm5AYBC44hEKbAcAKnCDHGIjzsjKjqGgXsKyEAFKAEADDjcdBErKCgAYTA7/90+3AHQ1HzLbCrWv3//X02ex0/nAgAFIRzHS+emInwCGa+5InEGAKj9iK67MkM0xZcRpomRAhF+OMUJMzw6xXHTjEZP+4SFeCCsDACezOGIEwAg6yE6I5ObgMQheyJsIeQJhAgjn4FLauoKHsJIXmCE+IgQnorPjPsuTsLfYsZJY3I4CVKe2cu04T0F6aIUTvb/eRz/21JTJLM5DJBBThT7hiAzHTmz/uQV/lIWxi0KnGUBb9p/mhMlvuGzzE33iJllHsfTX7o2ZVHALMcLvNnSOBnssFnmp3uFzrJ4RYg0V7zYgzXLHPFcXklyuFRP5LOl8XMSwyJnOVMQsWiW05ND/ed8PKS6WBIirZ8v9HGfy+st3Xtq+nf7FbClazMSw3yle+fM1c8XsuZipkdJa+PxPb3mfMKl/qIMd2kuUUqQ1J+f4iPV0zNDpWszkAs5tzZIeoZJHL+gWQbugA+EIBgwEAoAVsAeMIEFABn8rKk7CjxWiLLFgoTEDAYLeWV8BlvINZ/HsLKwsgJg6s3OXIl3/dNvEaLj5zTeUQCs3RCRNKcl1QJwyhR5fmfnNMNcAOTKATjH5UrEmTPa1HMCGEAEsoCG/CJoAl1gBMyQ6uyAE3ADXsAPBIIwEA2WAS5IBKlADFaC1WAdKATFYDPYDirBHrAPHACHwTHQCk6B8+ASuAZugD7wAAyAYfASjIIPYAKCIBxEgaiQCqQF6UOmkBXEhFwgLygACoGioVgoARJCEmg1tB4qhsqgSmgvVA8dhU5C56ErUC90DxqERqC30GcYBZNhGqwBG8DzYSbMgv3hMHgpnACnwTlwAbwJroBr4ENwC3wevgb3wQPwS3gMBVAkFB2ljTJDMVEeqEBUDCoeJUatRRWhylE1qEZUO6oLdQs1gHqF+oTGoqloBtoM7YT2RYejueg09Fp0CboSfQDdgu5E30IPokfR3zAUjDrGFOOIYWOiMAmYlZhCTDmmFtOMuYjpwwxjPmCxWDrWEGuP9cVGY5Owq7Al2F3YJuw5bC92CDuGw+FUcKY4Z1wgjoPLwBXiduIO4c7ibuKGcR/xJLwW3grvjY/BC/H5+HL8QfwZ/E38M/wEQY6gT3AkBBJ4hGxCKWE/oZ1wnTBMmCDKEw2JzsQwYhJxHbGC2Ei8SHxIfEcikXRIDqRgkoCUR6ogHSFdJg2SPpEVyCZkD/ISsoS8iVxHPke+R35HoVAMKG6UGEoGZROlnnKB8pjyUYYqYy7DluHJ5MpUybTI3JR5LUuQ1ZdlyS6TzZEtlz0ue132lRxBzkDOQ44jt1auSu6k3F25MXmqvKV8oHyqfIn8Qfkr8s8VcAoGCl4KPIUChX0KFxSGqCiqLtWDyqWup+6nXqQO07A0QxqblkQrph2m9dBGFRUUbRQjFLMUqxRPKw7QUXQDOpueQi+lH6PfoX9W0lBiKfGVNio1Kt1UGldWU3ZT5isXKTcp9yl/VmGoeKkkq2xRaVV5pIpWNVENVl2pulv1ouorNZqakxpXrUjtmNp9dVjdRD1EfZX6PvVu9TENTQ0fDZHGTo0LGq806Zpumkma2zTPaI5oUbVctARa27TOar1gKDJYjBRGBaOTMaqtru2rLdHeq92jPaFjqBOuk6/TpPNIl6jL1I3X3abboTuqp6W3UG+1XoPefX2CPlM/UX+Hfpf+uIGhQaTBBoNWg+eGyoZswxzDBsOHRhQjV6M0oxqj28ZYY6ZxsvEu4xsmsImtSaJJlcl1U9jUzlRgusu0dx5mnsM84byaeXfNyGYss0yzBrNBc7p5gHm+eav56/l682Pmb5nfNf+bha1FisV+iweWCpZ+lvmW7ZZvrUysuFZVVretKdbe1rnWbdZvbExt+Da7bfptqbYLbTfYdth+tbO3E9s12o3Y69nH2lfb32XSmEHMEuZlB4yDu0OuwymHT452jhmOxxz/cjJzSnY66PR8geEC/oL9C4acdZw5znudB1wYLrEuP7sMuGq7clxrXJ+46brx3GrdnrGMWUmsQ6zX7hbuYvdm93EPR481Huc8UZ4+nkWePV4KXuFelV6PvXW8E7wbvEd9bH1W+Zzzxfj6+27xvcvWYHPZ9exRP3u/NX6d/mT/UP9K/ycBJgHigPaF8EK/hVsXPlykv0i4qDUQBLIDtwY+CjIMSgv6NRgbHBRcFfw0xDJkdUhXKDV0eejB0A9h7mGlYQ/CjcIl4R0RshFLIuojxiM9I8siB6LmR62JuhatGi2IbovBxUTE1MaMLfZavH3x8BLbJYVL7iw1XJq19Moy1WUpy04vl13OWX48FhMbGXsw9gsnkFPDGYtjx1XHjXI9uDu4L3luvG28Eb4zv4z/LN45viz+eYJzwtaEkUTXxPLEVwIPQaXgTZJv0p6k8eTA5LrkyZTIlKZUfGps6kmhgjBZ2LlCc0XWil6RqahQNJDmmLY9bVTsL65Nh9KXprdl0JDmqFtiJPlBMpjpklmV+XFlxMrjWfJZwqzubJPsjdnPcrxzflmFXsVd1bFae/W61YNrWGv2roXWxq3tyNXNLcgdzvPJO7COuC553W/5Fvll+e/XR65vL9AoyCsY+sHnh4ZCmUJx4d0NThv2/Ij+UfBjz0brjTs3fiviFV0ttiguL/5Swi25+pPlTxU/TW6K39RTale6ezN2s3DznS2uWw6UyZfllA1tXbi1ZRtjW9G299uXb79SblO+Zwdxh2THQEVARdtOvZ2bd36pTKzsq3KvaqpWr95YPb6Lt+vmbrfdjXs09hTv+fyz4Of+vT57W2oMasr3Yfdl7nu6P2J/1y/MX+prVWuLa7/WCesGDoQc6Ky3r68/qH6wtAFukDSMHFpy6MZhz8NtjWaNe5voTcVHwBHJkRdHY4/eOeZ/rOM483jjCf0T1c3U5qIWqCW7ZbQ1sXWgLbqt96TfyY52p/bmX81/rTulfarqtOLp0jPEMwVnJs/mnB07Jzr36nzC+aGO5R0PLkRduN0Z3Nlz0f/i5Uvely50sbrOXna+fOqK45WTV5lXW6/ZXWvptu1u/s32t+Yeu56W6/bX22443GjvXdB75qbrzfO3PG9dus2+fa1vUV/vnfA7/XeX3B3o5/U/v5dy7839zPsTD/IeYh4WPZJ7VP5Y/XHN78a/Nw3YDZwe9BzsfhL65MEQd+jlH+l/fBkueEp5Wv5M61n9c6vnp0a8R268WPxi+KXo5cSrwj/l/6x+bfT6xF9uf3WPRo0OvxG/mXxb8k7lXd17m/cdY0Fjjz+kfpgYL/qo8vHAJ+anrs+Rn59NrPyC+1Lx1fhr+zf/bw8nUycnRRwxZ7oVQCEDjo8H4G0dAJRoAKg3ACAunumppw2a+R8wTeA/8UzfPW12ANQhfUkEgiF5AFRP9SDIkEU4CNHD3ABsbS0ds/3vdK8+ZYReAPJMp6h/sjkP/MNm+vjv6v7nDKai2oB/zv8C7zcEP8hzvEYAAABWZVhJZk1NACoAAAAIAAGHaQAEAAAAAQAAABoAAAAAAAOShgAHAAAAEgAAAESgAgAEAAAAAQAAAK6gAwAEAAAAAQAAAQAAAAAAQVNDSUkAAABTY3JlZW5zaG90c4OMugAAAdZpVFh0WE1MOmNvbS5hZG9iZS54bXAAAAAAADx4OnhtcG1ldGEgeG1sbnM6eD0iYWRvYmU6bnM6bWV0YS8iIHg6eG1wdGs9IlhNUCBDb3JlIDYuMC4wIj4KICAgPHJkZjpSREYgeG1sbnM6cmRmPSJodHRwOi8vd3d3LnczLm9yZy8xOTk5LzAyLzIyLXJkZi1zeW50YXgtbnMjIj4KICAgICAgPHJkZjpEZXNjcmlwdGlvbiByZGY6YWJvdXQ9IiIKICAgICAgICAgICAgeG1sbnM6ZXhpZj0iaHR0cDovL25zLmFkb2JlLmNvbS9leGlmLzEuMC8iPgogICAgICAgICA8ZXhpZjpQaXhlbFlEaW1lbnNpb24+MjU2PC9leGlmOlBpeGVsWURpbWVuc2lvbj4KICAgICAgICAgPGV4aWY6UGl4ZWxYRGltZW5zaW9uPjE3NDwvZXhpZjpQaXhlbFhEaW1lbnNpb24+CiAgICAgICAgIDxleGlmOlVzZXJDb21tZW50PlNjcmVlbnNob3Q8L2V4aWY6VXNlckNvbW1lbnQ+CiAgICAgIDwvcmRmOkRlc2NyaXB0aW9uPgogICA8L3JkZjpSREY+CjwveDp4bXBtZXRhPgpWooxBAABAAElEQVR4Ae39B7RlR3Un/lcndatbOSekbiGhjCSiDEK0JCQRTBaYHMTYGPvnmd+s5VmzZtasGc+svwNeMDYGM/6BiUMW0SDAGIQQIIIQQSJKIBqhgLLUih3ff3/q3v263u37Yr/3+r1+t7rPq3PqVNz7W7t27ao6d9HWrVuHysANKDDPKLB4ntV3UN0BBSoFBsAdAGFeUmAA3HnJtkGlB8AdYGBeUmAA3HnJtkGlB8AdYGBeUmAA3HnJtkGlB8AdYGBeUmAA3HnJtkGlB8AdYGBeUmAA3HnJtkGlB8AdYGBeUmAA3HnJtkGlB8AdYGBeUmAA3HnJtkGlB8AdYGBeUmAA3HnJtkGlB8AdYGBeUmAA3HnJtkGllw5IMHEKDA1tfzxv0aJFxTWa65dmtLiD8IlTYADcidOqAKFr8eLF9ZLUcxw4Hc7FcwK5F9TeDdz0UGAA3EnQccmSJdvFfuCBB8pDDz1UNm/eXDZt2lS2bNlSli1bVoG9cuXKsueee5ZMB8gD8G5HwikFDIA7BbLdeOON5Re/+EX5zW9+U+64446yfv36snHjxrJ06dIK0ocffrjstttuBXD33XffctBBB5Wjjz66nHDCCWX33XcfLjEldUro4ReDm3EpsGjwXYWxadSC6tprry0//vGPyy233FITkaaPeMQjKkBXrFhRfYAF4rvvvruqELfffnsFN6kMtIceemh53OMeV/bbb78qlQfgHZv+o70dAHc0ykR4Du0kLMDeeeedFXwHHnhgOeCAA8ree+9dVQGqQUpb+m/r7rnnnnLvvffWi3S+4YYbKqCPOeaYctJJJ5X999+/Rqdi9KZt8xncj6TAALgj6TH8BLSk5Lp168pPfvKTqr8a8tesWVMOO+ywQsKmo7fmpIy0ve2228qvfvWrKl3FJ4W5+++/v4aT3Bs2bCiHHHJIOe6448oRRxwxPMFTbivls4yBP5ICA+COpEd9StBed911FbSk6e/93u9VgIlgeHeJl5Mt9yQmifrxj3+8fOhDHypPe9rTymtf+9py7LHH1rgpUU3kfvSjH5Wf//znZdWqVeW0006rKkfmx3cN3OgUGDmujR5vwbxJwPzsZz8rV155ZdVFX/SiFw2D1pDOsRS4gJEvHVXia1/7Wnn7299evv/975err766StnME9gBXUd47GMfW84666wqyb/+9a+Xu+66q+aV0nvBEHyKDR0Atw/hLrvssvLDH/6w6qAXXHDBsFQVNcEKjEBGerpnCvvSl75U/s//+T/l+uuvr7nuscceFaQJ3PS9FN/E7pnPfGbtFB/84AcL05qOIN+ctNWMBn+2o8AAuF2SAJWLlGTmMrw/5jGPGUGwlIbpi09/ZQ575zvfWf7+7/++StpUCSRuwdrek7rASVV49KMfXY488siqXpjM5USvjT+iIoOHMgBuAy7DtSEeiE488cQKSiDl0ncPUAkqEzeAffe7311Bb3KWDjBTcmZ87+SVebhnnTjjjDOq9L7mmmtqR8g8Bn5/CizoBQjgSUDSXemnpCVTFTNVvmtJJw1rw0033VRB/sUvfrFcfvnl5de//nUF6fLly6saIE0CNO/bfPJdmsFYKh7/+MfXPJnbjj/++FqXto5t+oV+v6CBi/mAQU/93e9+V2f6z3rWs8rBBx88AhcJHr6h/Ac/+EH5whe+UC699NKaRvq99tqrSmoJSeF00nDZCfI5w/LZe6rJVVddVU1mOk5vPWpGgz+VAgseuKjw4IMPVrBZnqXbpt01QdVihV2Xqes973lP3ZfgnRW0c889tzzpSU8qFita4GbafsD1Thnekbx021NOOaX89Kc/rWY1wKVq9KtH5rtQ/QFwg/MmVxYFnvzkJ5d99tmnYiEB0wua++67r1jGTbOYRYnXvOY15aKLLqoTrfe///1jYinzA1aXZ1dO6J7whCfUyaFFDAsWLBNcAn/MzBfQywUPXMP8rbfeWsG4Jla50iXA8jl94ZZ47TlgynrZy15Wh3iAJ41tsJmIy/xb8LondW3OsTxMetN1B6DdnqILHrgkqIUDwMt9A8gEWAmY9IXbo2BB4iUveUldRDCcAzIHdK7JOvlneXxWDfUidQE330023105/uSpvItRg5pgwmVWn64Faoalb18BgJOKbLBUhlQbxBkrbeaRPkByvWmoH/Y6qNfA9afAgrfjWq2yeyulLRC1QGrvkZDOyVwFtNQMunDqp96n3db9ZF0CWd7yVC+bcQZuewoseIlLJwXedhKUAOolVy+IW8Bm3NHS5vt+fm8aO8+EsXZY0GAbHriRFFiwEjdBmMM83ZXLZ8DJayTJtj3lez4nz7zfFmvsu4yf9SGxc1O6MHsaBm57Cix4iQs4TiakxLWJJkG0PblmPiSBTMq2klb4zqzXzLd8ciUsWImbZKKnGpLZTOeCA1BSl1WBfqsjDdz2FFjwwM0TuUxiXEq87Uk1MyGkaK8k1ZHshxA+AG5/ui944FITmLbS9DTbwG3ZkgAGXFJX3RK4+a6Nv5DvFzxwbY6xrdAmGw5A8pptYCQ4mcEA10lg4B247Smw4IFrYw0brm2JXNpmdxZ41cHxd2aw3B2WgPZu4DoUWPDAJdGYwgzJVqs491QGdlp+e3XINjN/0y5sE486pIluANzt6b1ggZu6LLCQbJZ8fZ0GYBJALblmQwKrE2uCBRGrc86kDVx/CixY4CIHPZJjw3VUxwFJu7KAFIgSrONJvLHej/WuFt79kx3piiuuqOUefvjhI44OtXEH92Vw5gx4WRV8mMMGcsfSzeoBybsE1Fhg6QVnbxrvhbnct5d8UyUhbe0LtmVyIG3HovgCB26CCXDM4J/4xCdWPffmm2+u4KI2TNa1oE2ATiQPcb/73e/W1TKnMGyzFDZw/SmwoFWFJEkCxNEby6ykXprHMs5k/ARv6+d9bz7C7UfwLQZft3nkIx9Zz69lnXrjD547FBgAt4sEACJhzz///ELifuc736mTJK9HA1036aiSkSRPNSD9TNP6rAgOX9KznV/zaSZ1UC51RdqBG0mBAUW69EgJZzbv00jsuY6dW3rlgGg8AItHeuYOM/sf8j7z4HOZH+nuyzn02qc//enl5JNPrmfOvv3tb9eJos4kj4mU3cl5YfwdALeHzwBsonbUUUfV07rvete7hpeDe6JWSdsCiprhA85PfepT6wc+Tj311OFdZ23aTOMouu+T0Wd96okzUXzKU55SpaxvijGNAW92rDafhXw/+Fpjl/sJDMMyk5gv2vjyoqEb0AAZoIEsHansjFkO53ZzOSdGP/bOcrKjPvwEq3Lyi+Y29pDwpKzjOt5lPOqCY+725vrWA5d1zPIXsj8AbhcQAOMyvLOlUhFMlFgbzPaZqiwPA7DFCmDMQ5LjAQjg5Gcjj85geVlZDkU+6lGPGrFClsC15GtBxMdHWBlYPFLXHQA4DqaOR/SF8D5Bq60kLYnrdC1JyJ1zzjn1i+RsvKSkzy9ZjnUBMEC5AFleJC+JC2B8n9XPT+pLT6Xwvd01cRyexBYvAas8z2zKQA3AdGASefXq1VVtEGehu4HEDQQAjeGehPOp0LVr11bQCjcxSsnqRLBP6gOwWT8paqEAgElmEhkQxculW99sAFZ50H99ZokETZeLHAncBLFyU7f9l3/5l6peUBmAlxNvIbsFD9wEDCn6t3/7t+U18VUan/0EmgRVC5AEOTB+73vfK29729vq9xVISBYFaUhZzz6VT2oCG6uBiReX+cprLABmPNLc93PFPfPMM2t+Y6Vr67ur3i9oVSGB88tf/rL867/+a7nwwgurLXUs0AIMINnDa6LmB0he/epXV4kLaNQA7zk+CSy/7CDC5ZH5eB7NZT7eP+MZzyj/9m//Vr8rZkebjUELGbwL1hyWQLJiZQJkU4ufcQK8XkBk3AQcINE9SWkTOCDKfb027JCsLhYBwG3TAzdACnPfW5a8e5048qcXU0NMHvmZb2/8hfC8IIELMJwZPn2V/umDdyRZC84EVRuWoKDf+nI5ywCJyiUQM36vn2n5QDdZ4CmLnkx/trKnvKnk09Zjvt4vKOAmkACN5cDeAB8E8as3Zu0mRAnq8RjKckDPpcfm5G0iQGzjTAZ06s6xdNCb2YJZQNK1+WbYruwvGB03GW+Ydm9J1XB7+umnV7MU0HLjgSkBYkWLusCaQB2Yaadc9aaCqLMJIDOZ8pnV8n3Wb6brs7PzX1ASN5n65S9/uW5fZJqysSWlbOqemAIkCfaWSfIwVDOHWVUzScu4/eK3aafjXl3p4X5uypLyRz/60bpaJ3w2yp+ONkxHHgsCuBiaoPSrOk462AXmtx6S4SmxkqieE+jC2nvqhR86sfiQS8JtnJkGkNEBeG0G0ga2Zx2JCkQSLwS3ywMXiICOTmon1je/+c0K2tXdVagW1BNluLwsDRumc2LWpm1B3oaPd68u7TVefOBlJlOeDTusHPTthfC9sV0auEDA0UVzo7aNMiY3mM6RxBN1CUigBV6LCukmA7hMMxVfHbIeRgvmNz81Ref2U1O+yWDxg+TN9k+lnLmeZuJcm+st6VO/ZDKzFWnL3MUWyr7KJQAyae9zhrc+MJjU6Qz5MejpAkjWN8vLzpDP6bfxgJe6oDOqF0sJiZsTxumqW5Y9V/yZnw7vxJZisI9r+BUbeqHl0rTVTgSk/aoOsABC4jKFjQaufmknGqZuEwFc2waWBiDWQUlhE8+J5DHROs21eLsscDEVWL/yla9UBtrc7Ys1mOvdRMHRyzDSjKrA2VzTmtGEtWDyPFXX1g8Ax8rXe7q2PRba54cGjQb2+qb5b6z0U63jzky3S6oKyaRPfOITVdejHlh1SgmUoPCcYRNlgkUH+qSJGdemz3Inmtd0xlMPKpAFCtf//t//u26nzDKm0tZMOxf9XQq4mAM8JiY2pBjSqQd0QM77lEDup+IAV/79vnsw1TxHq0fbEcbL23vS3wKF5Wt23s985jP1NEa2ebRy5mP4LgVcDGJjZael1/qxO5KWSxXBfQuCFhzejefM2qkLaVFQpks+k81rvLK8b/Ns6z1WWuBlp6Y+WBZ2lCjNdhPNY6z858K7eQ9cjHBhsInTddddV3/F3Cw7v06T7xF8RxmXnwDNX+mZDSb2gne0NojnnctuMsd9rPLZSOQUhg62q7h53xJMSoY4y4VJlmGpCGmrHYtZo4GgXxodg0SXrxUzrgVVvzTTFTZeOfmeb3ShNpxwwgl12yXLSprJklbTVa+dlc+8BG5KFX4yzJJn/vjz85///GFgtYTNuOOFte/zXlrHcACCNBvNFpzxZ8JXh7z65Z/v+OlYGlg/LMA4Ocy17zPefPPnJXARGWhJFhKEzmkyxrbqoxrCesGNWRk2WcZlfJ3DB/FI29QZ5yLD1deFPkYHexrs43XKg/TlvE96zMU2jFeneQfcJDbC5+rQxz72sXqMxoc0bHzhvB/LeT9enN709EVpUk3wXn0mm09vvjP5DLxGB6c7WBre+973Dn/gJNUGbZhvbt4BF0gQ3IUpTD6kn7NfuQSLCQko8RPsyZypMsp3EUiw9qMgmedc9rXXapoN8yatTg07Lt+6qdKkzWM27+cVcJO4wGiSlN/Xsi+V2StVhCSg+Jkmw6bqs92yC5PodFwu805/qnnPRDo0cnE6OKfeJq3qazeZr+60NJuL7agV7/NnXgFX/RO0rAdstUDrOwV2RCXh0+/T3mFm9ns3VpjVMqoCNWE+SVz0asHpYKfPqZK4JmvMe0YsNEugj0WHufJuXu1VwACO2Yt5h5Slu43mMKIfiCfKoEwrvv0JpK5NOi2jM85odZhL4SQvq4iOzq5rQ4622RZpH+98asu8AG4LNGYdK2OrVq2qq0OzBQybtOmJOTFLJqtb3s9WXaZajrrqdOzRVhWNIr7eY6XNxE07WlpPtZzZSDfngZvA4DNH+aYAPfPZz372CPpMFDwTZU7ml1LeR0N0lha4WbcRFZnjD+qc1hj6rvb5Ik8eulT9bPtcbsqc1nERmeMb2pxqNcEgLfKd95MhdJtO2ok6nYZum+a2iaabi/GSBtQDCxSWxtnBcwPRXKxzb51mFbiTAVhbUUZ/+2pJPKdyTTDSjZXnWO8y/Vh+MtjQyhRGVaDjcvlurPRz+V3SRmcEXJviP//5z9fJ2lyud9Zth4GLAJO9FJ6Ey4r0+gkMZi9f5gZe+0xtJ/Quy+xNN13Pysg6pM2TmpDD7HSVszPzQUNtJAiMYjooM5nRLdu+o/VLPo3H78mWM2XgZsP4LrrSeJeJQeqMKpqN6q10NhIhTR582pP1YPXq1RU4aZfsTTcTz+piYkba27yj/srP9s9EmbOZp/ZpE4nrlIifhWUmM3GbaBsTA/38FhOZX/K99Sfb5klNzrLgLKR9ZmbJS4XyHR9gW9AKcwGAuFzGz7TyYq4hbR//+MdXFUG82QYNE5jDlnRbEjeBqy67ikNrdLfh3kYiNnLtZCbDl+RR297kV/JDHPetk694CV7vkr/iZtrMK/02j9HuJwXcbEBvAT6OQSq5bFqmD3IqbAJgxupriOyuubE739sgk40T5t7lwx0+7GaJ0iaRJEpv2dLMpANcG1N2Jf22l174hLc2KTk9wQdeizoOXfa6lgf4YhGDbR3/YcGzPOVjpDKhtvE++S89QaZM9O0Var3l9XueEHAVpPcoIJ1VJLvrrV75gJw1/GQukAJr/u6BpVKz8ksvvbRu+PBpTnbD1TH0AzaHABqiwfIkbUmAc889t75viVUDZumPhQftUBdt3FUd+uYiBEnL2SZqlLFggf8uYObMOQgWG/dJaeH4D6hAaoQCXCCGFQLtq1/9ao0jP9YMQLYBiPCS92TmDxMCroomaFXAhycMnypJNzrllFOqr7IarxGYrDImVxqQIPaVQWHML4hic4wLYLnf/va3NX/6pCPXCJpDSo0wS3+UqyPR9XQ8k8KkwSxVYdaLyTaznOCp9lPV8NUETvvzuD/+iwekJs32/AIuILrgAN+AFjBdRmJSGf9ZieSL9za8J58n2uhxgStDTsF6oJUrvQ1gDeOOsACZ3qJCJJRZqUoDo8Y4Ji0fv1ijl+XQQgrrBIDhx0IQRi9OQMsb8abLySvbM1aeGU/HQ2zEt/NsMhJhrPzn+jvtz5+xwk8gs8+Z0MF/nRmQ81eJgBav4QIv+fIg2IAzpbTO75LnunXrKoiphNQLZk6jtHQTceP+BoSMMNDeAMO33mTYJO7Tpkm/8U5lSGQVSeDqkWviM5guwE0brDwRwooUVUMjhZHOjpNrICcfbiKAqxHH+KMt4+WThEtG6Eh+rvSv//qva8fK92MUs0u8SjqRsB/+8IeroNJ2gggve/mPj0BNohJc4gK/uPCCn57hJx2pzWrE3EgPNsISiFxLZ3XJ+mTaUSWuiICkB6mQ3/oi1inrJCJAqaAeY3+nLYbiASGFO53eRlrpUWvXri3Pfe5zayOAHpBdQG93vi+Ev/a1rx0+QTudoFWf3sZnHXv9JBr1RhvVcVdXE3ppgPboZTQFPvz165f0X3sbOCOsEfPiiy+uPx+L/+iV/Jce76kdeO/kcX60xOjV8t9HTEjipz3tabXM5EGqkJ5H8C8qONTviohDkdFQ6DhDf/M3fzMUttQaT3hIxaHoiUPveMc7hkJdINuHr8h8KHrPUEzQhgK0w+HihN4z9JznPGcopPdQNK7mF51DlkMxHA/Fz48OfepTn6p5C/OuX91mMkyZ6sbFCDL09re/fSg2q9dnf2ay7LmQ93BD4wb/4+uWQ29605uGApSVH2gTauNQqANDAbahGB1H8BifQ8UbCuk6IjwE1dALX/jCofi9jWG+ykebuVhuHnrnO99ZaR2jdo0TdvzKCzxJLNTI8aevqgDZ9BRWA5taosB6ZikSV12GKmB58L//9/9eJ2lR2TocMKXokawKeooexJjtQ8pWZEgwedsg8xd/8Re1J4oX9ajx9dR3v/vddUhhuzW8eOca0dsUOENOWUHMqs+ybvgazvOe97xaV0V6vys77cMTKhuekbS///u/X+cz2XbvqFD/7b/9t/KNb3yjkgOvmC1hwM/A4qWN6pfF/hITPCoENcPxqje/+c0VL8pBa6OZexL8/e9/f53oJf/NrbxztRhY8j/+x//4i5YR+dJqFVOHIT4/3a4AFaI2vDfOLvE5G5Pf8IY31J9NsuPIpM3wYg3ccRF5sDLQaSj2fAq9OBTyrLz86UF0ZSAXp9WJ2nrO9D0mUV3obphBPVoILoHLjmvox8O05eY7qt0HPvCBemyKMMPfP/7jPy4XXXRRBSad1sXaQDXAQ7qyyxzI/giWBBO3BKW8WSKS/zqHeyplCszEJj701XEBy0Vh9lEJDrhkbJZtP6xf/eZYCV75yleWZz7zmbWntZl7r2BgpuvSlzVYz6LTmITpnQCr4tLSeyjrJnw6j04xW04dXOqjrvQ19c8TD97t6k7b8/eGdVaSj9N2IAMoei1JakmevvuCF7ygjqJA3uuAVzw8JZCMwuz59F2CCaY4vIcxeDKi4z8rFvz1o3vfvQoqRlVQEb2FlFVpjsj3Xu/hNOzss88etgKI23sBrZ5HuffrNpxeq0crR94qnRVkGgMYEt9kT6N6O0TNZAb/AC4CYh7mqN+u6tCdVEsa46+RkdTEf8N1OhLT78LlNyxYF84777yqSoojn8wPDjgjMACyMHFUMLw3qnLJ9ywf/43QpD7+A7c4GU+aEcCVkIlK5QzhpB9nBqgncqQQO6wwTLX5hUjnpBcvxX/6CsR8Q4pGcPJQKcBtnbh0IZIYWDRyNl0Sj+2WdEgVQXhLuNms00yXpV3ZNtKWUGJDT/6nYFEPfEu6GOrtKgPeBJe4XPIekAkhZtAUWvgOY6Q3l0ILjUlnnYU1Qlqjbj/aD6sKyTC9jQgHMpXRa4Ax3wO0IR5w9RiVJlHTiddbkGd5qFCaUoSppIvz3DofsEAkdj7qgvJmwyXhtU3bqUu7utPmFEykqTaTevgKPK0DPosRzGSEHP3ffT8HkImFvM948s28k+Y6T/IZrnQQgksZwluMDKNBxi5WAHY34E0nPDP3jmKNqQrWOAAXh8uK8vNeuErpYbkBB6GkS4JlHD6nN6sDQup1JnnyUw5/up36tfkaKj3r+VxKpOkudy7lh6ckrlEx9Xr8ybYTMkZXVgY/miI+NcKwnnHa9uAVHqOl/QxWSjl5420KMWFonUCWlwUpHcLIl/wXL91ikVyASXwDlmEi9ToVl2ky1bOK5nIeKSptGyfjZiF80lOnoLdyhg9EANDRnIp7Tx9K149A+W5H/LbOOhj9Vlm7OnC1MdsOWPhkWKeuASaX7xMLiRegxEfvheWVfCDUvMM/ZtXckG8hi0RvgQvk8nelEARwcUjdrEPmvTQrzqcMGyZS9Oe7rFj6bWMyo36+9Bzf5hmWBDoyZ52bDoVAvS7L9U7PXBezUb0dIVLy96bZ0eeWMKweLh1U50pC7mgZczm9NtpETqd3oXNKwKx30ij5KrwNA7rWEYK2Cnz84x8vX/ziF+uIi5/s4iZ+hv9e2ibv5YP/JnQm8lQ3nSRdVRUUrpJMYHQY0rSfayvc3veLm2HyNkz4fbHLL7+8BquwWeaasOMi0Gh5pVR2CtUs30ggv9HiZ5k76iO4ITAnZjNd3o7WdzrSAxDhoqOmJExQTiR/fCStYUg+1APzEwsY1D0Ci5Uq1YxURdBWOf34ajS3dwH4+wJXxVTcbI8YJ2m40TKsLyfwR3oNsLry2c9+tjZEMnqyYyJW2DiVzwbUgO4fACf9WR4o6horbCZc1gEDrPgYJk1EOe1o/fqwC/4xlBvCAWayDo1M1vxE6yWXXFI7PutEjrAm2/Ti173udXWOhN4w1yu45OMdRxWhKlLdALd1wyiQCUWYlJNgR50KYD7d5kMf+lDdRKwMQ8VLX/rSav9VqaxkgiPLFZcj/Uk/lc+wjDPdftYldTHSZ1d32WbtJDHxf6rCwfF2m65IyHT4SsUjgAgCAHQRjkDbzyUWvBcPLqVR13w3DFwZUBcAZUeBm5lb6/77v//7ulJCZyQxX/SiF5U//MM/rA1pgShNS0T3dKYctvo1cLrCsr6Zn5FHWAK3933G25V8bSRo8GgqEhctCBh6qcUmEzwqIilsoktdAGifhP3zP//z4uPbKbiUnbxvfcCFRxdsepe8GAauQEByZeKpMEbGJlImYvaw0k+BlpJts85//s//ueqOvWX0PmfZwtuGZfh0+lk2Qqk76Y6B2WlmuvzpbMuO5AUceAXAYwmvBE9bljQWo+ixaEjooCPg2rJq6yurEtPW//pf/6vijL6bwqHNq72XL3WzFXLeDwNXZQwRIqVtrs1gIvfyIK38mvdb3/rWujQsPzuH9LB2r+14+ckrK+3eNZMu82cSxECSo53Fep8An8l6zHbe2W5t03FNTAFO2/PdROokLZq50glbvXp1XQ7m//M//3Pdccg8ZhcY0NqzQJVIl3Tm44P5jXujQFufYeAqREYi6jGTdTJVIdsd6bR2jukljNkkrY0YVuPEmwgA1EfFTcpUeiydaLJ1HSs+4HJ0MlJHG9RlITjzDzTvlW7aPh7P8LUFljSegXJ1gBZAqQwwonNQHWzWsvMsbeVZjrKkVRe6LVUhRz9xuMVZGGlLMgKKHjdZxwb8kY98pPaqb33rW7XxZqh2jr3iFa+oFQSErNRE8idxTRj0YpXvtRNOJI/JxmFRQAv6F9ePiZPNcz7E1zntzCK4evnfC1qYyWustrXp7D1hSWK/VRa+AjF6j+aM/CZmrd6deVZRohIysyCgVwAvl6DuzVhil/ekMwPx+973vhI72KsCTjqSrkwf1AP38geCiTQ4y0NECr5FEUAarT4Zf7J+tqNNp/16d9pw23e7+r1FIfRmMx/NoRlJmNKQL6yfa/kFEyQr4GY4681YZZG26sMasZ2qIJMEoQkUu5tLhVLCZUFZOQDMNOtiVesv//Ivq53WEIDpgGoSRvnOGWqCNtNlXr1+1ke4RlHuV8dQo+HcaESqLyf5J8vKOqWEXxMLIwsJuHiNPza2sMHif06wWnq7JwEBjqQk4OwhAax+WBFfvi6jLb05F5GwSvhYDv/tnVCv5H/GH9ZxZQK4Ligneei8wknL1qmkSjkd4PiO5TyFAKmjGcwdDr21LsHfSt72fd7LVxx+rmD5eMhMOGW4sm6GSO1uD4Tmu5kof67kqY3UI+oYPZeejw7tiVtxgBmvnfqln8IBc6ePtkiLlr1OusSPoR9PMx4VoJ0AZ7j4OhO7sDKZ13rdsI7rhYoYLvQokm40RzLZSPzGN76x2miBVq978YtfXCUt8HIqklfmpSO0YMj36Wc8PdrSITWBfsSJMxMu64Oo2kbapjkoiT4T5c6FPLU928+3woX/uZOrrSPBZLJFIpOEeGSByZDOARvX8gn94IqZzehsLqQcgNUx8DfTSJdSOOugI9G9M069iT/DojQrT9ooSMUwsh/jSFpLe5Zxmb9IZqCl09o72yvW5Z1XFpz+aOGObqh8nnfK+DPlI5rOaiLYzmCTCenPVPlzJV+jW/KfQOp11CjCjQNYpk+rZUYrUptUBWD0amkGT9QQuwMJB8LI9ljY4RJ/6eM/bDnv2Lp8Pzw5y5d6wOrQKYFW7+h1MrNZ5pOf/GTtcXqgoeLCCy+sBmig1WtcWfl8zt6U4W3DVMizjuJ4EGnLJOXMUsbvrct0PWfZiNq7ySgJNV1lzfV8SDjgBFqbZHodbNggBbz4acshIcb8aTIND0YrfHQBsnwsQAAuHVm4c4j041w9Uw5a6zRUVfscjHzmS1xipz7En2EdNwP4wMJcYZsbxVhjgEfGwOyTPCqsAoYPvYei7gBlDhfyEb+X8Z4TsMxvZpqGDRWTn/SOxZN+VmE0pE0j3+lybYdQvpHEURT62kJ2NkEBGP4DKDUQX/CBXopG7LL/9//+38p3R/gB1AgJaKm3wgRJe9lll1X7PvUSsK2w5dbGxAde4D9pbHUNP2z4gq8su+XJMHDbDMz8/H6YXqRQ0pQzHDAcuzgFCdObfMRuNNcCz73Kkcwve9nLqooB+CpqqDHs0IX0eJIXiA0XAMwl6Ecra7Lh2W7tQHidNAmf5WWcyeY9X+OjAdCgvW8i+PpQCha0IFDwjmSkLppEWQmzC5Dt3j4F8fDPkO+i4+KvtP/xP/7HatMlIABeeNIYtoy28tEJUhB6n3HQdRi4HoDCS34elNObvhqfh3SSN4GkF3EA6GLHnYpzdk2DOJU31Ji1OmNE/9FDP/3pT9ceaBGjbaA6jgXitpFj1U08M1cTDUMcVSk7SaYbq5yMs6v5qQp87nOfq4A0tHNoAXCk7l/91V9V8xa1EXipWnnCpZce0jgNDLQ+HCIfoCT8klf4D2s+KmNuk1jM922eI4CbEdIH3j/4gz+oO9iJfT2JpMRggOUrPIfzTJcN7MdwcVzSmggZCjhqhvP2DuJRT0yQAFsdqCb2PjCxGcY4ebvaMuuL7p+x3mV6vvSAS3rQqelViDlwpeq6luuB19xm7dq1VVVIwLFAAK8vE9kwzkRGiNFPxbHfenXoxKQ3XrqMrqRsAhZ2YMnOMXy2uiY+lYKUH831/QRTRsZUFTB0GzI8G0aBjlMgl+BJvwbGn9GAq7Ly0KuBly5FulLWqQU6h7Qap/KIRoUg8ZlQqDHszeqWZWZZ+dzWK+vT+uK71MXs2A4m+vuf/umfjpgwtGkWwn1LP+1F49RTSU2S0OpXOvxBPyYynZ+6RT/mCAFqJ8sBPdmz/FPtECf38JpfUA/YbAkQTtnpeoXJmMCVKBuCqYYB4lxlgM7kKkGsMgnkLCzTy0PBbeHASPcBRj0QIPVI6gCXwMo0JD6l3fq23kiVoC+Jn3FrwuZP1r0JqrficwlcE1HDnXq8+tWvHu44NdIC/NOPbiQp4WIugFfJ/17yoGECTj7wkTxs4wI4XuI/7JDOQGsEFj95lGl66zRCVchIrZ8ZAIoek5LP5MnqCkWeSUOBJCUJ1s+pHIDojUBIigOvNFQDlW4bqKIu6TiS2Vdz9Hr7Og1LtkwCrx4qrrpmffvVoQ1r46mTSz1Gq3+bdle/R5teoNjlh8e+u0HgAJ4VNnMC9McX7wE1hVnSiUCjjgE13DC1Jv+phLCVq2NAj+e95Wde6Y8rcTMiP4FE8togruJUBxLY6gYQAyKJyM9NySquskxcelgSxpBPZwVKTngCKkHsOcErTB10GF8LNAoAruFL2SmtM6/RGt+WIy47o0mgPcMYBLxZD+8XsuulIV5S7ZxuwX+8Nvehu8IBPOA98KIhsBIwqUrAAH668B9gCcR0yevecvN9+pMC7nCiAA9HCadU64EqpjepJICtCSM2s0aCVyP0TjqsHqbSo7kE1ljglZZe5OizhlPqgQ7BNHos4LXvDH3aYALyX/7Lf6lSI4mW/mj1XAjhY9EAcE2qWWRyid6oSp+lRhJWLoKA/RewYcDImQsLScMEbD6PVa44OwRchSW4SEHDLR2YT+R7RxLSZUhHupGl4dEcQKlwC6xsgLC85JvhJIBP3VMfAJflwbCVLgmS8du85WNiYeLJDOOoUZaR8TOfhexPhBakMD4QYL7cia6EiNGUOsAH3lQj8AWt5Z1+S+PxyhxXx20zy/tkfpt56joq1Oophg4VB2gzyPFc5p3x2ucsr20o9YAJbXWYXejfDuOR6iwUHHC2efTmS9/O40XeJSEz3sDvqHBJ+6RH0jTDW6mK/gRKChhx8pJe2hQomR8/82rDRrufEnDbzLIBwlTelb0q4xk6KPB0Y0NHO5kSR4XbfDJdPz8bJ35eymNK0UFIdit+TDMWMvT0Nv/2Xv7qQ0rkDqR+ZQ7COmDrpQP6AyCe6/zASqoCbGKhTZP84uND8rKNM9H7abW0txXToLwo6/RQijqVol9vm2iFe+NpPIIBLxONDSCrQ/qaBNgMRA+mZyeR1JHLZ3o5vSzPPeX73nIGz9tTIGnojZGL5YBlgTPq9qOlNIDdSmPx27w8j+emFbj9CsvKAy7dE6AyrF/8qYQhQnYGxm4bQGzPMzkkfW0IAs4kWlsGfVyHoounmywRM91C8pNGyUsSV1haiHLU9T6v0eiTeY32vl/4jAG3tzJpNmPIBrTpcL1lAG8SiZnFcjVpbzkSgIGUk87lmaRQN+rLwE2eAskDoxrTWB4ynXxOk0sxPQgapcwEiNckLnOI2Wf20lGSTTo4y+EncGUCjNbabW7XYZzr91G2jA+4Zr8mlikpJl34Ak9ACBmxTL5NlGeLjjs8ORuPb0DCpcTVSICZLgmX+Wc92ufsIGzGdNj8BBA7MpMN/RbBTShMJjJ+5jXw+1OgpbF7+iw6zqbEnXHgZtPpPCQb5d3CBQuAsNkAC+LSfa2wAalVPx8uYVEwsbPyk059WsZk+MDfngJJJ5MyqgJpa2SdDTcrwAUGQwopmxM0W+I0fCaBm4RNMFJV6GAkgx1P1t11nlwnT4Jn/Hwe+NtTIPmGxqQtAWA+kSPXTNNwRnXc3uZSF0hdEldDZ9MloQGV6uDSmdh77Z+wZCmOMFfrMm0bNrjfRoG02ODvbLmRHJrhUinv9tFaQTObn23XApD5yxKxzSFsyw7yMZ9lh2ql9WzXc76Vh34EQrvUnvSbqbbMOnBtvjA5c6XttQXUTDU0882ybKm0wcaCBbOZIe4tb3lL/eS/8IGbOAXQkvrVAnfiqacWc1Z03KwaiZsfVgNc0k2DE0wZbzZ86gqw0nkR/FWvelU9feokhN1uPmpiJY7kUD/XTEuR2Wj3TJSRO8BMuLnZoNWsSlyNsm8BWOlFvZJtpoGRAFQPW/IA1oQtnf0O7L70cMvFzsCZeGS9Mj1/4LYt01IVZlvizhpwk9kmPsxPGtur52acmQRFgtCkzAiQ5htqi7oZEewXXR37HUhlEth+h5y05cQtQTyTdZ0veTOFMXPmPoXZqPesAbdtDFDQi6gLs+mA1gV0Og3zTQ5v6sGQ7rJY4aMVFiqMCpaMnXezHs8B72x0slrYHP6DBjlqoiOpO1tupwDXkXN6UUrclIIz3egsh+mLo98mcDEh35O+JLEFC5+XEm6zuYULHY6jH2f8GrBA/mhz0so9CxFaMIUZwXLCPdPk2CnAdRJC41OCzXQje/O3+IDYVtFSSiRDMi4GuKy4vfzlL69HTUheX+xhNuOkcS0U16+thADAEgD82XKzClxgdVkaBBoSl+RtXT/itO+n497Wyla/VSeOCpDlZ12pDpY0nWnzdXWWEN+HNXFLJ02my7CF4pvkaruJLj9pOdPtn1XgaoyGUeIN00DbC1zvZxoEhnuqQNodc3hria4OWQ/SmfMlR9/R8jkqu8x8LytVB+8zfvrCdjWHRi2dtD9Vhdls66wDN5lK4jI19QI3Gy9exs2wqfptZ7A7TZnMchOZBWcdEtw6nCP1jgXZe/GpT32q7vW1PZLL+FOt63xLZ4JNAJjocrPV/lkFbttb2U8Nw+y5YzV4uglBr7adUfn9gNuvvAxTX22QznKxj7PR152l8yPbdOcEOJWilUy1kbvYHyqUDqszW/JNl/TK55nwZxW4bQPsWTDEANF4DiGmSozetKRtbh4HwH7g6i2rfQbMTMMe7Qda2H7pzb4x4OMiOoe2tenGa+N8e48OTGFsuEaeVKdmqx2zCtyWkWylgEPiplksAcHP+yRE73OGT8TPcklBkwnSgY4rXL75Pn15us8ry8hnaVKyCrM8TO+Vv+8z+DyU+8yHvyP1rxnNoT/arD1AC7wm27NpUUCKWQWuArPRqdBrfKoL3rcOcfJqwyd7nyBDZEeHbPTpVRPUayzX731aHKRjm/YD22y/vvHrd99ygSXbnPl77pdfvp/rftbdHAXv0qw4m51zpwEXc+wJYIIiBVs3HWBt80tC08nsve0H3Db+aPe9gFN30jsZ5tkHj//kT/6kTlje9a53Fb+yqXPqqBkv/azXaOXN9XAd02TX5Ez7UkDMRr1nHbiYlg1kXrIA0PvTRL0AmS5CAK5OYkKVCw9Tybutn/bkJS/g1S5f17HnwdF4nyZiPvOuTSv+fAFvbz2NNoBrxSxHr+Srds20m3Xgtg2ymRuAUuImcVIitXGnep95IbSJIOKS9NM9mUjwyl87mNuoDT4FpWxflzR5I317Xba7N3wuPic96fA2SrHOpEVhNtux04CLACZIlgpNzkjDtuFJoOlgnnwBxvIk0w2djPTjvGvLnWx5mTZ96dUdY7XNh0l8S4tU8nkoAPbJp17Xpu99NxefqQgWH1hWcmI2m22YdeBqXDaQ0Rp4ST/mJC7fZ5zRmDbe+950JmaAS9rm0fjp6hxZl8zPs45B+rpsSPcVSb5flfHrNNQjzE8nbeaTYXPNz/apV0pcalECdzbrO+vATQbxATaN17lxZaYan6t0hvAc2lpGTEe5vcDLZ+Alfa22OSZE77344ovrzzHlRiNxsj6ZbjrqNB15tPXJeyMkmzh1L4HrXb6fjnLHymPWgdtbGdLPMJp6bu/76XoGXOqCiRmXIJmu/DOfZB6/LSPvDa1+WZ7+e1n8hpxfZcxjRJkm42aec8lPYBotzBmoXdM9X5hIe3cKcJNBKkgSaXw/vW+0BiTxRnvfG47IJhJWzPxIBjcb4GjrqTxSNZ2N6jbsMN77gUPfNuP6WR4yzVzxtYVFwcQa/3aGm70NlKO0jg2Q3mniYpKGkS2wJUOoFgQZNkqW2wXTb+Vtdg+4CdrePLdLOA0BvW2RJQAzI/nZJe21TOyEBcnrl4fojRlP+tmoZy1wgn+oCWkKA9yk5wSTT0u0nQpcDU7gIgSdCSFyxj8dLcR0EpeqIF+dZLYJ3QIvywZeuqHvOlCX6N0+zGezuh9ksf8BuMV3tXlMB112JA/AJQioeClxs107ku9k0u4UVSErqLHAlJYFP0HUDqcZrx/T+oVl/F6fikC/Vc5cctqKBurlZ0LPOeecCgj2Xj8LoCNrJxrNNjCSTknntvwEro6V2xnb95l2Jv2dBtwkiMbptXaL2UdgOJ9uZz0dsUm31s02sZXdttuzOmRn9T01+x1YPth7bdiZjO4vv5l0Sa8WuCZmvW2ayTpk3jsNuFkBPnXBJhW/nJMumZnP/fzxCJbvGcpJXHsU0nmX7zNstvx+5Wqvi8rgE6jPeMYzqt35H//xH6v+S+pmndOfrfpmOckTwKXa4RvXrz2ZZqb8nabjamz2YLNTEtePENNFDT8YNZ7L9OPFS4lLks0VNxqztck7v3JpOfX73/9+/fFAX9dx7o3dO13mMVE6ZLqp+lke1UuZSc/ZKr+t9/joaGNP433bWJMUkyaEIR29c9/G6Vd0ErLfuwzTERDaRMIMnpPveHln+tnys078lGyAYaOOzer03c985jP149S54pZpZqqOvfTNZ/RUx7R+7Axa7jTgJrERAEFMUADLQgTz1XQ55/4NbSRVzoCnK++ZzAddAILFwfd7bZfUBj8E7ZiQ5Wt0SzDNZF0yb6OgelG71K39wRdxZrMuO11VQIBc+iVhABdhSMgkhDh5j0DtcxvuHec9AssXcEko0oH+KHwuumyHuqdzn21lIqM6OF3hbBtz1EknnVTnBqlWjdY2ebvavLOMyfomz0YxvvpwWcfJ5rUj8Xe6xM3K02uBi0ks1+/z3WT8ZE5aJwDXhpB+G2sy7mTyn+m4CbLWV6bhmYRjMrPjzLfPvvzlL1fbb6/qoF392ibPybjMp81LWfijkxghk84ZdzL570jcOQNcjbCqhTB5gDKZlw1sCd8SM9/zM05upDH7dd9Oatr48+Vex06JStL6uo59D//0T/9UP8zHbGaEQZeMlzSaTlBR46heubEm6dfLqwyfKX+nA1eDk8C2/SEMK0ArRfo1PgE62jvv5SEvum3OgPvFnw9hbXsBkyr1nOc8p/zZn/1ZtX9/5CMfqYsWAKWjip9pErhJ5x1pL3qS/u1iTlvWjuQ9mbQ7Hbgqm4S1QKA3k7j8dC0DMiyZkH6Gtz4CywtwbeTpjZv5tmnm8n0LkGzLmjVryoUXXlh1XRt1Pve5z1UbK703dd/edvY+T6bNKVRYgTj12JH8JlN2G3fOADcrBWAAl5aFZFY/H9FcJJArmZl5ITL9li7GVixOEjn9jDuffHXPtgMnFctPAlAh6J/OuFnM0d4EcLa31+9td9Ix8xc/L3GTL2kKI+Hb9735zdTzTrMqZIMQCHGToBYi6GsOFyJKq+8aAul6LkDMdElkebrPvOy2Ei/tt1lmvs/n+ehnG7K9Zvi2SpKELA9OF9PvfXHHxFR8Eyl68FgOcBOM4hn5dH6Alfb666+vE0ObgPBG+fYsoHPWqRUQY5W1I+9mHbgap7Ec4KWjj5K0nNMQCOV4C6mJkIiBOHQrEy0X6ewCaHE4RFYGIgM/0CZwk7A14i70ByC1DR38HIBJm69JXnXVVRVcwnwuFY2S9pqf9MiwpBtepMrGygOg+KAcn5tyD8DMlkCrs+CDDmIZuAVx5j3d5F4UgNhmOJzu3EfJLwnmtYaRsPaj+sE8G77ZCTUeOBHCxEoYgiFWmmBMUOh4TtKS1O3MG3Df/OY316VTe1wxbjYkwShNntHgpKf2oWdKVbvMfJAaoPyesS+spxMv02UYH2CB0kIHezFhIi6aExp4gTfsyFbzci5CCFEfTjzxxHLyySePmLxJP91upwJXb7b/1G/sIobhx9CGwHryaA6xrN3T4+SBwDZln3nmmcUOq3T/83/+z/p5JPqfDjATBMyy5oqfYExgApcfYlm3bl2l63nnnTdqVUlT+jE9mRS18cmeCbQdy5HIhI70+GHUQ3OfpVKfmaD7rAM3CUsHs+eUdABUF8lAahjyWpcSNiVJvhOXBKYSyAvRVsfvS6xdu7bm+6Y3val+mMPx8N5hMvPYlf2km47uB1jyuw7PetazKp20HQ0t0nzta1+rwMMHkzwTvqkskRsVlSU/fLQxSJ7uAbqXh1Ol/6wBNwFryP/Sl75UJw6IA2iG8dYumD00fWldjriQzogjnY/NURcwBvFJXsfc6cckLAnA1kmKc5nfVIk139IBriHchUY+P+WEMd+QbhmZaubIvLgA62OE5gT2RqM1iZ2dfjz64RFVgk4tDyc6TJDZ5wkPql/WaUdpOWuTM402pPgBEDqtjyMDlMZwen4/l6CV9hOf+ET96VKzZScG6FJO7erNdFwza8uipK/OAdzZIcYjer+y53tYSjdtp4qZD6A3oNJjARgogQyIAQzICYbL4gTye9/73rpbT1r8kc9odMxw0vUNb3hDFRj4oSwjIVUCv3JUxdcdcbMGXNsVKfx0Ld8X0Cu50QCbhEhimSV/+tOfrsMdoGKC3osA8nAhMOLr9SSL9yQ8J5680q+BC+hPAg+YfJzkAx/4QB3SgYkQAGgjlQkuKYt+9gJP1uGN0Y9jaTAqEiQkuPxNEpWxo27GgQsolH0TKUPPBRdcMAzaBJ5GJKD4LZhziHvPe95Thx5xSQj6l7hcppUfKWNi8V//638t7373uysDqA0z/T2FWpE5/oc05QBTJ7ZZh8UFaOmf6WyZJCU5k2TWgpbeGS/pn8/yNJHL7Y74QaKz+uCpeY18bNFMnvXmkXmN5884cFWAqYu+qcIkrQZqSFtpYekyHKGpCO94xzvqzzQhbupb4rhP51keiCWd5xe84AXlgx/8YI3n98pIg4Xqkr7oQuUCVvwwdKMrmqXAoPdSFzhC4D/8h/9QpXIbxzt59TqjnhFPeeKzCaO7TuKdD6CsidHSvMb7rFdvPuM9b+P8eDGn8F7DKOhmmZR+vZtT2X6Nznd8jaILO85jA0kuTpCo2WD5tA3PPDMM0Q1NJnXW8ZnL8p0yFpJDN52aXZcN1pk2AOPQE2gBi7NlMod7cfzWhckVlwInaZ1+fRl/8jnjyTtHQnMaGPj85z9fT3UA71TdtqWrqeYwTjrLjyqfM/vs1WMl03j6kLQkppU0G3AMWfIiIZJACcR8znwz3GTBcKfzGP5642X8heBTAdh0LQ33gibpRTVjXkQrYGf5IXTQXRz0c5+X5/bqpaN48uFYgADXiih+mH9MlR8zAtxsiMrp3RoPeBMBrQZKL+0ll1xSJYRhzcfiWCJIBcNPuiwr02U4X3lAa1HCcKUjcFMlVk08D/9or3kGmtIx0XE0tYnFBsCpaOJaFCIwgJbkJDTy8uxC595rNDKZHJoQqkvq0dlpRkvTL3xGgJsFmYwxR2l8DkP5bjRfD2WB8E0Bv6VARbDr/3nPe15ZHeYtei0iZWMnAkIrQIhvZmvBgptIutHqOB/DgYQJDGgIAg4NXWiB7hzdlpqA7jo9MyNfHDxkEQB6fCBJXd5lXunXzEb5Y1VNOSQvXmbZo0TvGzztwE1A6JWWZQFGL5uMM/v0ITgTOkP9a17zmjpbzYmZvBAoXd6nn+F8YRhlaCSp6bsLyeEHXgAJ8KbKlrRJWuRw7syfeGhF6AAuR4Uw5yCNxeF7zr0MwOdSXmIg88YDV0plFh6WHnWSz1TcjE3O6KUaZqcSAqj0eE7Dgf2Tn/xkPclqxuvjGJYoDXVJgNHy6SVYxhNuomboM1k89dRT89WC8KlrwIgHRp90SS905TyTyvmRbQATH+0tINhXwkLEnIana8I6wFrA3MUERhpnnllG5u25vZe3VTX1SlNlppmIPyPApffQYUg5w8xEXDaYucRiAylhk8ZFF11Uh6V83y8v71qiiNMbhtAmGeqlfilh+uW3q4VRvUhGQOO0P6VjL91IQEA1uqEZEP/5n/95/aYDoLWO6iAOs9orXvGKaqM3uuKd9K3rLUeHYL1geuN6+dWm7Xc/Mvd+MSYRpnIqgDDrYoXMpMyQ0Lp+FUREaWzMAFxLkVbXXvjCFw4TO/OQ3jWeS0JlnRCZ1DXpIIEQnJtIXuOVNdffG/no9pZ1uaSN+2x/+oZvFh3S2XKtjg6wwoye1C55pR7Md9rYPhGLTC95yUvqPgjgHa1zKJeEBm786Ad0ccZy0wrcLEhFEIB+1Dt7bYkmvsaJbwi30OA7ub7xRUWwXNjbc7OMJHQ+j+aLp0z5GMoQKiXOaGl2tXD6KZ3ViiPXS7t81qFb4JLUeGOJmFTFF4JIfoZ4y8Im0ISU+1QHX//611ehlbxOHrR0pbYJ1yHmDHA1QE9UuQRev8priLgkrF8htxeUZLRnlJoA+N73pvXsmozTgdSHuYe1Q946TRJ3MnnNp7g6qwmpDtsCN9uddPRMspKcAMwBqvnFS1/60iqtjVJULHGpHuYx9oYYJe1DUY7FBcu+r3rVq7bjW0u3rAvpDbiTdTMicVUizSm9EretIOAYxij9Go+4AOsT87bYcb2gbdNP5h7BAVe9fMLTsNcL3GTmZPKd63EJAhMroEuwoGlKxwSuZ7otKxC7N8AzQ/7pn/7pCEtEthdf8Wh1mCjl8d7YSWbiBrxOGtuTYo7TS+NMz/fOIsScAa6GqBRitGAQ7rklFtXAx9wQF9Fe/OIX1yXGVjcWP9NKn1dLhIncUxE4ehqLBTCrYxK3retE8psPcbTRBDnb2tY56Yi2aGBO8u///b+vlgXAZS1gPiMVAVUccdEs1S18MhchcVmESGsLPS7AT9oqV1pOuVmmek2F7jMicVVKDzcs04cQISublecblj772c9W4GqQTd9+SjTX0IVx0iJW2xGkz7w6sbZNOnrDvafjkSgAaxVusrblLGM++kYacwg6q5Em6Zh0Ql8XCbl27dp6te20VNu6BLAweVEpLCPbDwLA7Lz2XZtg9xtxlZW6rbx782/LGu1+WoGbhNCLmJ6SQL2Fi6cXA609tu5NxAxLiJD5SJf3hjwN1tNd8lbORJ0ORE3I3VDSc/LPMiaa13yLBxjmGjouh245KwWB7AAAJApJREFU+qBp237P6ZJ/SaM2njiekw+kNasNZ+in/46mAgA+FUFZhNpk+FgLiD/TCtzMVEXsTTDzBBiut9E2ewCuZdg1YV8kbR3MIxkRNYniXq8FbkQS7hJOopPOeq8wzEGU1iGOsIxvJEjbcjJJ2rzne55PLuufbWjrru1oRL81YU6XcbOt/fLopWXGzbTpyxOPEoB8PEFzLvOuD90/FjHwk6pBKE3WzQhwVcJsk6kEuHJjsXCNBWYTMoo8oLp8A+CNb3xjvU8Aalj2aISgN4krD+aXv/u7v6vDmzJ8Q9ZOfvsiWoIqkyNtDWG5gpZg9q5ffOHzzfUDiDZQi6gLuSKGpum0XboEZfr5vp/fltMLbvEzz350zfzVBS+NgFNx0w7crDQpCqBWYgz/wJgNASJDCSsCR9dlEkNQDcuem/HFcd/2YJM6Bm89Hah9P4sZBnC5JG4SSg+n4zkkqC6juYw/2vv5FJ40MBl1WUxA+xxx0BtdXUY0PEEjfAN2q1vSZZykTfpokfeZlzB8UkY/UGd8wCVpU6gpYzJudA5OJpeeuIBneKLnAq4hyqQgnfcAp3EJ3qx4Ajyfk2i9UiLzavWojIM40iWRMAJDvAdcLvPPfOazr13Z1mx72x46LoAYlo1U9hcAVdKLb7eWo042ONE/HSt/5StfWfd1AGLm3+bb3hv1UofGQ/sPUgVIWmceynIRNCxJU3HTDtwWMI7p5KZkwM2KU8jtqAcowEXEbFxKw3zmuxCTlCWdgVWnkIehH9H8Nm4OO+InA/lAS9/GvNztlMzOOmX8qRBxZ6dJWo3WFuEEifaztaJVxlV39CdMLEBcccUVlb74YNN3bkjyPnnR+sJJcdKcKsYpx57flOzC2jqS7Jx5kDnHVNy0AzcBwLdMqIcb0lXSqU/hiPKa2KqoR3tugeteWK+zUPGf/tN/Kp/4+Cdq+ifHkZw3/u3fVjXEMCfF0pDiSaAkrrzSRLM2TD3plDOfnIF0e6p0WqCNvTTrfTbrZ5d929veVgFpDgJ0hIC4Oj2g2uBkGHc5neuHUwiaVk1Tqo5PR6U7EyjMX4BrJCVJSXX5t0450rEkMZ+lEEmetXHHu58R7qkIguhxJk16pIkYp7GcBhpK+HnvGag1uN+l4UPRcNeiAJ50AIh4u+8ey8uRzruyNey+Ub531t5TVcGs+ehS+0t/sm3AD7QzSqW91bAuLMHEdz4vN/3buWUzvyVcLvmBpi60R3cj4Lve9a56lB0o0ZiFSEfhEpTSK8NyOz4D91SlrXxnBLgyVklOL9ezDA8aqcEaowdrqMt9+yxMnLwyjhzluzgu9zpHpovYNWxRcNe7JVHOlnh/VUgCOh61Qtnpsn75nATO57nmD3XIGa3s75Jm/d92Qum4559/fnnwgVC7YiQ0UhEU2g5YVDt7E0ymCRgS18anj8Zh1VtCAFDtlIPuhAGTps9c2WNCQlMHbchxEBO4K027nQafxCGZHVqFCWXKbypu2lUFlUhQqBRiIYgtcvYIpE1RQ7L3JkDbBlQ+dcHvflkQGJGlycYqZ8nibcPR0FAAHoCDINy3v/Xtqv+eGGvqR3WtDfXFHP7TD5gZxkeLfM5moEPSMGmf79L33jvgevSjT6nLuqtWrionntSxshipSMLnxT4RIDWc3xiWnstC6t4Zc4Qf/fBH5ZHHPLJKWYBnBWLCvPzyr5e77r6r7BW66tmhir3gec8vx3RHtsrD4JcR8Kbf3lh+8MMflD3Dnnx6CDOjcR05o4KEzVguO20bZ0aAq4AkIIIZNgxNbLeWBQ1XAA2EvXHzuTIp0lYX/hJxwwda0kDvr2UkJ/XciL54UZzlf3hDuelm38n6STnt1NPKsY88pqoWnczm/t/a6sr1nrpGWJciwy+S6Unv4Rc9NzUeegZ4z3jCE8vdd91dfhlHo5YHWI89/rhKn62bNgeQTyqvesUrYyheVC4JNYGUvDKk5A+u+n45JKTkygCcifKdsQH8oQ2ducVhBx9Szj7n7PLyl728qhvKqBXlh7sjJsbXXvuLWqbNN7uHigHM4nSj9NR25KO694J3xoCbRWdPtyoGrBYlzPJtwMj9Aoiel/jDrrndSm/dYpm3MwPWW5cESLmhrqqxNJiwaeOG8pMA7KVfubScc+455fjjji8rVgWh5pPrB9px6j8ecIeTo2/Q8LwY0n1jwaKO0e/4kLyEwuKg8ePPeGJd2LHBxsdDTLDX37c+5gtha+9mtHxpfK/toIOrUPLhlRfERpvjIn5Ioy5oOxHvuPW28t0rv1sefujhUFPOK4ceHlsBNsdo2+X5cL0meTMrX2tM8KqbhQAzWxMF+25zwQDR+oI30uhxGwOQ73vf+8rXLvtalbZ+KvTVsefzoMM6h/nkff/6++rQRqoj5mlh9qljq5c9bkQH6Xm3Mx/11V7pMlZ90GYiOK8SNzPqgtfI5FcqfX6U+erpz3pmxuj4wZPbAnjX/Pia8t3vfLceXr13/b0x3O8ZasMxdcg/9bRTyyOOiB/3DsASICbNgcqaft2vri+fiPODB4et9tynnRugPbyQ6ouj40ys1tuq00uTWQGu4hO8wEni6u15SoLqkADOqo4AVuVmx5b7UAxTlPq9Y0Vn8W6dyda9MezRtxz0I9WZYkiLWmZDyL55Z+Ac8ScM3IhY9flJALfCydgcwFUOXjwcFh/7Ra6IhYcNobs+7vGPq7bb3YOO1cVIZ5LLMkRFSwGDB8xk9OLF5hRdsFIBfh180CGcJzsl9OmTTzq52nYXidMpeNLU3mnAVVNASr3Wihqguei/JLCJgxmt1ZTxhr6H1t8floobwnZ4a1kXR0cQha2YSnJE5FGHrJAYkVH36tBqRIeYNPlmPgG+9jJpu1IjUoVe+BWMESH97eIKqPFqog5d4SfTRsfeFPOFm0KX/fFPflzpuddee1YeHEQVCL7svV9n11ffvCOQFL0pJnR4entcFjJMvkzK16zpfNq0SuJa6Jg1Ha2I7WgyaxK3rZFeq8dS8pnJAM8CgxUwa+MWKpbbirdsaVXkV4UyvyF0JNIWkTdu2FgevP+BumlZR0DoI488qhwZgN1z3306QA1ikgLBn8rVaiyrDKshbXXGvW87UXs/bkJF6zjhJtph1G4YuCRjt7odGVmzGpHXZFSFWpOoT9apg954NiqFu+P228q6X68rt952a1l/b5zN27ql7irbf/8DapkmcgApvv0hG+PCy5yskcx2oZm7rF69ugqSauEZ6kycqxDpNGHSf4dp0k2504CrfODlDEEAbNmQfRAhNkYYZi9fsbwS4/4A9aaNm6pkWRYTg1VBwP33278cEcr+0WuOLrvtmUNbZNjhQ817uv4MxaQFeCrTg/kJ/w4s21LyTSnX/uLaymAjiE3aCZA29jCIuoHbUkdAtF9JixYFnbYvqM1m6vfRLuBD6yVd1Wv93feUG2I0u+nGm8J6cGeMiMGPmGOgO+ACILWirrqFcFixfEVdTDjo4IPK6qMCsEyPWd/Iv7pIsyNuTgA3G4BYlWBdAAtHRPsXTOJc94casWXL5lCdhsoeoXftu0/8NFEsT+4VE4Tddu/uzN8c7I6Zau3RGBHAly/TWAcI/nbK2kbRbYRElAQM+oYMqlXcEqFbQqQtDem/bHnsGe3GG+oCt8aKcka6TlmY+td/+VcxmvymPPvZz45Ty88qywCjh4G9wM285F3zD6n30PpY5dock1f/amD6Fds1Xq1F1iUeRKthcWNX7BZ+XDrfULSptjGel++2fNsJBO0K+i+OkS7d5hjh7PO495576whH12WFoNsaHdnl944RctWenRPE0g3hRbjs5PVhB//0AndbDXcw46kk1zBXAlgenqkKrjEdJiEQeyAX4N8QQL/i698oH/nwh6taQaIvCYmwCKNiuKrSC8siSRhkytZqTgtwC+i6Smxsj3ps2LSxDC1dUp609qzy7/7oj8puK+JH6EKAyKtmEmm2dKUVlESqWsZQdLR7b48J6Bf/tdweI8iTYvK5KMIWbe10JPq4NndcN1V4QhZ1O1usKdUyHrz7jvK+f35/+e4VV5ZN0RnCBqhqUbzYHRMh3aICUobD+XoIh75xbY3hfai2N1Ypt26Ma3HYb08qv//s55Snrn2KnLrRI34AMxJG0thXEgBlDXCN67rStUNDWWjbzLidCty2ScONbQP73Vd+xx//gzCLgpHVhb85Am+/567y02t/Xh6IQ3sd5oYEGYov15RNZUn4gPdATOzueXBjWbZqn7L7nnvFilzsccC4brfuFBE/Yh3SjgryiOMeVRYvbXfpA5VSY19FpN3eLS93XH9l2fC728pzLzi/POPstWX5ZHdBAelQdJwHw2Ly7W+Uy77yzXLoI44ou61aUTZvjY8lR/nLl4ZOtDV+mG9JHGsKWmzcHJvy42pBbA4wFO1atChWHmPJe8miyHfrhvLjX6wrt9x0T5zUfWx56tmdFug0LfCRo0ND7z10W1oJ1L1PT4eZQaBmMenPGeBmhfjbpFEntBGIw9HQruIMvYSG5F2xx6pyxlPOLPvsv18leMiZCI+f+BzaFBDbUP0tD20sn/zYJ8ql37qqnPX0Z5Wzz3966NCx/FglTuQU+VUeRK5bgxFDMbwffOQRgsuW+LPETUjiO26+oXz18m+UG2MzypYYxlVmcSSMb0mWLTGcXvej+MbWzb8r1//kp+X97/rnsteBnQ//VU05iokUUUcXsESni7AtIYlPevRp5XFPPKMcvG8MvQAa4FXeEYcdXv7oT95Qjj019hMvik/Ub91cAq5lxdLdy7U/+2XZFBL90EccXg4+9JDIWyU5I03AOMoY2moDUqg+G9YH6DeWv3rz/1duvCM6xpaO/jwCd5G80rbmUDPq3HWz7cePjDVb/pwEbm/jEXEEseI5eeMdolcmrVhWDltzZDng8M7HPhZHuHnakmB+WCwjSoDg/ofLt7/3/bLsmuvKo045vZwd4N17b983s2stgCqvyLRTRJxto2rEHgnl0ErimGHcbA7g3lz+5eJPll/8cl05ICZe1JKhkNCLqREBuA33PVD2P+LQctcD95XvhIF/Eeko6/o3/LjRpsXKimtDSMp1sZ7/9AtfWI4I4/7+++8RHS0iixSjyap99irHnXZKecxZZ4RgC6sMiRzSdMvNt5cvfubzUas4pXvwAbE4sCo0qBhldLo6m48uqfJLl5dVMS/Y68ATIt3mcuTFXyh33n9jtDPedRrbrVlt/vD9XL2ZF8BFPLQf4brExlvo9L7ex9C9NGa/lefxSrT4smsnkrOhgav7Yoa8eUl843XV3mWZScXyeB2Q5Npi3CeBNofkDlkaEUjXuHvw4fK7dfFzS5uWlLOf9NSyVwBr8xZWj4gTKgn1w/6KzQFmevCIvKOyFbQRe4lXAbTbYlHmmu9cVe6MlaoHNkX9AnhdrId+Guq8KwC8ISoVW42io0RJt91RPv6xj5UvfvZzZVPU6WfX/qyuJFoaZwHYEp1BHR4M0+DQipXlpPhK5Wtf/qLaXp1sqyGkEq1Wb179Sb7Mq0r3rWyXAfQ7ADNvpttVyAzFLxp2AbV54+b4SuDtdYvj8phssVZsCT1xaMiGEfqg7SXhIj++fNwNLTYAy82LCI3gxQGOE045obz+T/6fstdRcQTFpAYiA8CdxBE/gFMjSyCwivTGJ8Zj5n7bz39ZPvuZfykrYjJUdU29UZq4qlSUOqIuifSLo/Pce8ut5fLPXlLe+rZ/DCvLAeWAffYud913f7np6mtCQC8Ka0F03qjP+rCP/+yXvyoPhUntuXEu77V/8PzYahdTvwB3lciRb8epX21d53GO/53XwDWhQ+6qE3cBUSd5cd8x+QSn43/9ww8J8/BDG8K8c2e1O+6z914hmRx1dwogQAYoI1wHNMBb/9X3tSvUbGOqFyampWULc56kAe6O3wUd8NUAmYrQ5B9SudZLmqjX1q4kB2xNqdWO9J0WdtLRr1cEAO+0yTtA+86/e0u54867y8sv+qPyghe/qBwck7eyOdQheYeKE+gsl3z0Y+Wd731/WR/FnH3OOSUaHlrRQ1W1qauY3Sp1ylPP+eHmN3AxOLhMn7PjaXRHDQh9YGnohZvuLHffflc5/JHHlyMPPyQkk1TIMB4pQgWp6kTkUeIXxeMfCDOybYG06gIwJJkVpfquC0L1ox7UOExTIcFjqN/NTreK7Ygdvvf1ivgZW4jOqAhRr/7B98tHP/iB8oNvfKP8/vOeW1bus1/5UGxkuW/jQ+W1r3lNOfDoo2sp5d67ygfe877yrnf+c1kZdu+LXvfvyotf9OIsIeas6qaWnboT/PKfL248bs3Zdhg2ucrgoP/dN99SdzI9/OBDlfud1wGyMP+ExTYmOqFAxG6o3/5qXVkfwD3k0AfLL350VWzji4+JgF+8r6pC/O2ArAujAByJuzGU0X0PP7AccdB+ZXnlMMZ3SgnoRk02l/tuu6V87ctfLe9/9/vLAw/Fx9wqMOTDyRfco++E+nBUmNgueu2ry1lPfmIXMfFGHSJOTipr62oyqYbKfQ/cX35+zVXl1zfeUNY+64LyuteHbXlZ2BaWDZWvXvrV8re33FDOf9r5sTizT5xauLhcevnl5VEnnlBe/LKXlbNjJ95uy6PzmqBGXhZWWqct1WzWBs7h+3kJ3GGad/iJD+Xyr3y1/MunPl03i9i1hOnxharwNtaZ/pIA4OIYkjc9uKE8eM/95Rdx2vXWu/6x7B5r6/Izu68zPACLq3YIZqTKvLBJLN1anv7C55QLn//7scwcv0Iz/C8i1GE/jhGF1Lv1ht+Wa678QTnh5BPL6lj6lA/8yrUCJiwSX//+D8pDIeLuvLPzNe7Oy+geAR7xALcTvyYa7iAr41yd3xw76ugj45sHR5SVB9nSuaS89CUvLJsffqB88QtfKt/95hVl9+V7xTGp35UnPPWs8rKLXlueHP6qPesMNIaI6HUkvlGg879TiPYovy24+2YuevMOuCPo2jwsW7V72XP/fcveGx6qE6+61S7st8xci7s2z80hja9Zd0NIzyVlzSOOKvvFXt5FsbxJMmJk/PRfBXEVlN1RtOI5ctktJO6KMP4vpjuGE98V87q6lAoFVqY2hV106W57lnMueGY585ynBEhC3keHWRr+spDsmwPcd775LeWWWMbtGhvkNoxUueelnI4LKRzlWjI+7fTTyumL/YZFlPfgfeXOOFn7ix//JDrsLbHnIyT2Yqa7MJ/tubKqIXfc+rvyyziFu09sPtp9+bKyR6hGK1eYnJnAbnOdjtoZEbaFdu56F4fQZFh49Eaeped5B9yW2ghYpUZw4IyzziyPOuH48lBsCBFeDwGGPXUoZvjLwqqwIoz2t8QPz/3Nm/4hTEq/K89/yUvLE+I49tKVK8qDAB4ApsMuYWEIPbWiKvLdGhyS35aYPO17wL5l/wPi1xgDcWQjgGA/8HJhPY0rzGy77VWOPfHUctpZa2v4tj+R4ab7y6Efvrjc8eANIeG2aZXdLDoYjmjDz5EYnKKouipm89EDD6wvd8WZr9/Eyemrf/Cj8rNY5HgwOuUZT3xSeczjHh/7ZFfGqerryg+v+XG57MtfLleFHXmP2EG35x4ry2EH7F2e9pQzyuYwkXXKiMLCue+oPgHhtvD6dvs/lfbbBw+HzDSw5xVwW2K0hHO/30EH1muYcsM3dLqIwDYay7zrH3i4HBYTmLWxI/+RsV/0rjtjA8mWjeWw1atj+rYNSMPJmxvTsUVAvuHBGorl9aq8x+2QwHG/Jf5sZhqjQoQU3rwplpzprxY5Hn4odow5LSuLTprq5b3gmmvjR542H/n2rOPdV3wzjtzEhzvo9ffF9sNjjj6mPOfZz42l23PKwcccG51wt/K06BTXxjmx78Uh1a/Hpu5vf8fB0XvLvqt2K8etiZMIkV8rSdVkPrl5AdxK1AqOYGkfCldAh35Wh79giKMhdQ9DSNoSG0oioDz825g4ffWK8pOfX1cuih9Vtu5/9ZXfKX/31n8ov73n7vI34T/uhJNiwSC29wWIOmXGogOJ618NiEUBN926iET2dkRUgL5GisAY1quqYjtiuKVLumSWLlSGqma4z3w6pYlanaJCnnceut7yAOO1IWGvvPiqOO1xZTlpzZryorDLnn7q6eUf3vIP8RXwS8rVoTIctXpNbKQPNSj20D4yQPzS+DGRl8WHV+4Ke+5Pf/rj8vOrr4ojN6eXj3/q3yp4O4VoQpQ4XJ8Mnbv+vABu8rAfGVspXDeU0EExIf4N7+KKfby/+MWvymWXfys21ewdk5W1ZWUMm1s2x6cwNz1c95qGFtnJvhknO0Nn5NPVa+tKU43VgZZbKgOY1ftgPBPT1rALb47VOVI+kBr30RlqtaIjxb4G0nYERrqI4QGQKnRylLWYMakMFcGPFT7hrN+L/DeVU2LUWBFmrk233hEfUD6z/PBHV8cXe35a/u0rl4ZkfSD2Ma+sm/EvePozyitf/epyzOmnlDNDzz3zTFaMsEB3aTSiHhoxT9y8AC5BhpEtkStj24B4m1Kxgz0xJFxS7rnxhvK1b3y7XH3t9eUpa88tpz82DlHayxsSmSmsk3G969zXwozlQNsp2+w9BHcExfCfsOoU2H2uiUK6xumAhx4o//TWt8YJ2Q8FkKMTxQYXtubFYZrbGmrJpd/6Xtn30KMiG2m6TkE6z3Cb3Aw/1Ei7r9i9nHzKKbFgEr+iE3uW74+zYruHPuszSeedf0F5ME6J3BMb7u+5Z325NbZV/jC+heBIlJMLtcqsLUaBLR2TYafkkWV0wub+33kBXGTcjrzbBYgFqN3IxBdgxRGfb3/zW+Wyr4eZaO/9Y9kzVpjiS4IigurikGgVP10QVoEtq1pidIbQVe+9f3353a13ximGQ8r+dcO0QtqrJqgptoYFY1NYDjaFHXfLgytDM1gW2xs6k7ktMUG04+GkE04uR8V1qHooPKqqNqlzDqsJ3Tp0cu80Z/luK+NozZ3l0ksuKd+NE8+HhEnswP0OrJu5V4Zpb1Vs03TaYvWao+uXKffae5/OlzL1Q1XuHmnyYHUx+15fcmbBc9CfN8DtpR2Ct2pCh/URy+wIaInH2PJ/7fevKV/4/L+Wm+I81dqnP7Ocde5ZASZcJN8oCCEJI7P4Ilb8i+QdHEUW8U4Zsbfhzli0uPgTny4nnh57V5/0e+WA/X2MuEIt0jKhdaTl4thFtmrfvcojjl1dnvH855THPu60MM0tDynrPdSEDSKsEw9FvfbY76DyyKOP6IbLa5ur6kJ9FNp9Vyd34LUljs1sKPfFUfxbbvld+e1vbiybN8TmnmjvspCoK8LWu/e++5dDDzu8HBIf6tgjgPzz+P2HDpBjZ9hunTxrgbXQbZCtNN1WjTl9N2+Bi6opLYYpHGCrG5/hMrByz7rflos//PH4XtUPyzExIXnBy/+gHHTIgaHT3hcrTiEJgTP4ZjKWHxeRV51wVTEYnA2d9J4bbiqf+MCHyq9jgndsfOz4gFg96wCqA/d6JizysJhx0mNOLa/4w1eX8y84r6wJq0WtiEz7uaqNsFCQtsDddRVLUXYXU4Sy0WFZqCECnYZ+7nOfV54Ye3d//cv47d1Y9FgfG2zWx+hy+x13lusCqFdc8e26M40+vW8cr3n2c54d58EeEbp91D0IZxumDpI0rP42DGdN5qw/r4HbUrVKX/bXyoHYG3vzneXtb3l7+dDHPllWxyeGXhyz68c/7tRgeyz/AkCAwWra0rgJk33Yb2PiFK7yjnSL9/VPBGxc/2DZcP9DZd+99o3vNjhb1R3MdZQoMuXlyr32Lo9/8lPqVfOKyV9EiauzsJEA7OxAQ/rQl8PKUEIHtmd2U5RZlwVyKAnxvyTeLQ1/abRtRQX3srDTxub2NXvFdVw59RwlNS4+mHxHbGBf95sbyn1hPvvZz35ev/O1Jj7asTIsDbVNoecui3I79WnS1tZr+Nx3uwRwk8+x6hA21q3ljp/8rPzd/++N5YOf+VQ57ffOKK//f/+snPusZ1S2kFmLqnkqmBcM3C1AtSSsAFseXB9vmMICaRW1YgJVLDI8HPtZA9d7rNwjTrQ65SpmxA2ptSJWs+ouq4htz26snYWWgqykmdzo0F2QVBRHfnFCgoqx2LEfm24f2Fiu/81vyy333h3gpXfW7hOFRLfasrSsiFptCEBe+bXL4wN0t8f76CoB9NoW+atyAFE9XMqLv2VVbNs85cTjygnHPjJGlKXlyku+UJbGBDHWCstvfnV9qBidfQtRWbWNP9kFhcxtN++Bmzym294bzP/mly8tnw714MpvfKecf94F5SV//PpYs39y2W0lqRbMGBYoi0Ny7V6/qXtvgOG6n15THn3yCbFrKzTfiEjHXRYC8Z4bby5fvezy+JLLw/E1lgPjFEFH4pKM68Ogz6if+1rrYcQAjZ1XHWgHtACxLTbAff1114YK89Fyx223x7kxvyi0ofzqN+vKg2HmetSJx8eJCsd8oqJV4Y7vCMcE77bQZ9/+1rfFSl+Y8WrH6Uj9+reDucAd4AWg47174r6a9LyPPQpopWPtFvsjf3P7+nLosafU07pRWKTp5CfNfHDzHrgVFUHrq8Pc9cVPfqpc8bVvxM6sh8ozXnZhufCVrygnPOb0svs+3WPswxwJpobbN/YqHBVqxNd/9MPyjtiQ/b1vfacO1Z2TAaH/hhrwQJiWvvONK8qxp5xYjg9gr6xWhcVl1d77leMi7PBHHBnHcjrMdhw+XeU/8FQohVTMFxFnxcpV5a577ym/ufHGDmAC6LvF0vNrXvfa8rTzzi371RPOULakbIx9DnfGcu5QTLzOWPvUcljo2PBcgV3zb/LuljHcmStxOjUgod0tDsvGbnHS8mOf+ULZEMPIhs1xpMkbwJ0noFXf+Q9crQgRc3ccebn5VzeUPcPw/vTnP7ecG7P6Y02O8vxL4IBMqcwJJi0Ke+yehxxczjzvaeXu2N/wo9ixtS4+4FE/jhGArboyIMZwfuxjHl3OC1vp8ScfX5bF8EsqHXbUmvK6P/53ZXmoD7vvqWN0LBTDvAcq5agfV7HdCTv40MPKC8Isd3d8W4t0F3V5bBJac8zR5chj1nS+vyBBqByLIv8TH/u4sn/sNHtJdMSjH3VMALeT63DenRKG/wof8a6CNqsQ+ntoKJti6+PNt95TDj7s4JrOhNS/EemGc5x7NzvlSzbTSQaTI8tSv/7hT8rPfnB17HzavTz5vHPKsgPiZ47iQyHwUofQKgxjahaArXx36iH0wdg4UH4XO6t8KzZ/NYZ0AkDvd4svtzg1/MhHHRdSNj60F3ptfWk8bhzAV1eD/ekMvRkrtyx2KhSve9J3EvtrgaOiPFQF9dtUboiFho1R39VHrylLJ3vMfVvG3Tt5bw1LxE0xeYtf2owPrBx88IE1TISqYrhpXL+w5nXf221Sv+/rSQd2+95wuvkP3C6PK6+rctdpW93hFQj1ugOjbpurzhmhaTkQXIf4AORknWy6JQwPs1FYp0odyG4Drsx7JZqYcdUKZsxO6poJbqlb+yrq3Ymx7W83xYja16TDL2TQzacOCTGx1Gm7zvkznVH02qm7Ej3fD4CblJgJH9W7jKpfikn2dsdurDNwd2bsydGOX3FReZfhnQp6khzc9Il6RKgyvNMhtsWqOWSJXb8TJs62u5H5b6vwtnCSqhMfsOJu26tOcRHQK33aKPW+6bDbp+9k0xkBIjbAdmlUUdsDWrEHwO2Sfsa85OA2pPQpKiNt8zuaqEQZlhmkL5u4H2awmOJ638bphIrNZW7u21ieuQ4AR6apx3ZqwgBum4EE/TIRHq5Gjfe9STpvI2n3hTIBtXa9GpYpwu+I20wy7M9F4O4ak7Mk8RiMzSgjuY9pmSgZmDETBW14J65FjGE3nEUn3ojc8iEit7kMp63hrfRu33Tvh/OvkbdVtyeqovSrpsgRMTIcgFPZ2Ba5rV1b4Igs5tTDrgXcSZO2w87KNlIoudvALOXh8Ksoo0ovAV1+dywV2xeeUm77N01I5NPm7c2wfupF78vhpC3YuuBv47av5dnNqie4T2ibyXBhk74ZbsOkU26foDMyjQyf95Ozkc2Z6lPAMzjaAe72rJVrVSf6UbBb5BivplqpbjpA6lcnYS7vxwNb931Gb/KrHVPju3mN2DMRoXPVLXCJm2wJWFbeYmB/N8zzfq/Hw02/NBMOG71O4wM2C+nWvk8ba9DwUDOjDcnKTIs/AO4kyDhzUnUSlRiOCmRjdqfhmJ2bsTpAT9R58LjNmDcPKjuoYi8F5o+E7K35jj4PJO52FFxoYJis5N6OYDsl4P8PaEHvGHGGAqQAAAAASUVORK5CYII=;" parent="1" vertex="1">
                    <mxGeometry x="530" y="270" width="244.69" height="360" as="geometry"/>
                </mxCell>
                <mxCell id="117" value="" style="group" vertex="1" connectable="0" parent="1">
                    <mxGeometry x="1040" y="310" width="110" height="300" as="geometry"/>
                </mxCell>
                <mxCell id="118" value="" style="rounded=0;whiteSpace=wrap;html=1;" vertex="1" parent="117">
                    <mxGeometry width="55" height="60" as="geometry"/>
                </mxCell>
                <mxCell id="119" value="" style="rounded=0;whiteSpace=wrap;html=1;" vertex="1" parent="117">
                    <mxGeometry y="60" width="55" height="60" as="geometry"/>
                </mxCell>
                <mxCell id="120" value="" style="rounded=0;whiteSpace=wrap;html=1;" vertex="1" parent="117">
                    <mxGeometry y="120" width="55" height="60" as="geometry"/>
                </mxCell>
                <mxCell id="121" value="" style="rounded=0;whiteSpace=wrap;html=1;" vertex="1" parent="117">
                    <mxGeometry y="180" width="55" height="60" as="geometry"/>
                </mxCell>
                <mxCell id="122" value="" style="rounded=0;whiteSpace=wrap;html=1;" vertex="1" parent="117">
                    <mxGeometry y="240" width="55" height="60" as="geometry"/>
                </mxCell>
                <mxCell id="123" value="" style="rounded=0;whiteSpace=wrap;html=1;" vertex="1" parent="117">
                    <mxGeometry x="55" width="55" height="60" as="geometry"/>
                </mxCell>
                <mxCell id="124" value="" style="rounded=0;whiteSpace=wrap;html=1;" vertex="1" parent="117">
                    <mxGeometry x="55" y="60" width="55" height="60" as="geometry"/>
                </mxCell>
                <mxCell id="125" value="" style="rounded=0;whiteSpace=wrap;html=1;" vertex="1" parent="117">
                    <mxGeometry x="55" y="120" width="55" height="60" as="geometry"/>
                </mxCell>
                <mxCell id="126" value="" style="rounded=0;whiteSpace=wrap;html=1;" vertex="1" parent="117">
                    <mxGeometry x="55" y="180" width="55" height="60" as="geometry"/>
                </mxCell>
                <mxCell id="127" value="" style="rounded=0;whiteSpace=wrap;html=1;" vertex="1" parent="117">
                    <mxGeometry x="55" y="240" width="55" height="60" as="geometry"/>
                </mxCell>
                <mxCell id="128" value="1" style="text;html=1;align=center;verticalAlign=middle;resizable=0;points=[];autosize=1;strokeColor=#d6b656;fillColor=#fff2cc;fontSize=20;" vertex="1" parent="117">
                    <mxGeometry x="12.5" y="15" width="30" height="30" as="geometry"/>
                </mxCell>
                <mxCell id="129" value="0" style="text;html=1;align=center;verticalAlign=middle;resizable=0;points=[];autosize=1;strokeColor=#d6b656;fillColor=#fff2cc;fontSize=20;" vertex="1" parent="117">
                    <mxGeometry x="12.5" y="80" width="30" height="30" as="geometry"/>
                </mxCell>
                <mxCell id="130" value="0" style="text;html=1;align=center;verticalAlign=middle;resizable=0;points=[];autosize=1;strokeColor=#d6b656;fillColor=#fff2cc;fontSize=20;" vertex="1" parent="117">
                    <mxGeometry x="12.5" y="135" width="30" height="30" as="geometry"/>
                </mxCell>
                <mxCell id="131" value="0" style="text;html=1;align=center;verticalAlign=middle;resizable=0;points=[];autosize=1;strokeColor=#d6b656;fillColor=#fff2cc;fontSize=20;" vertex="1" parent="117">
                    <mxGeometry x="12.5" y="200" width="30" height="30" as="geometry"/>
                </mxCell>
                <mxCell id="132" value="1" style="text;html=1;align=center;verticalAlign=middle;resizable=0;points=[];autosize=1;strokeColor=#d6b656;fillColor=#fff2cc;fontSize=20;" vertex="1" parent="117">
                    <mxGeometry x="12.5" y="255" width="30" height="30" as="geometry"/>
                </mxCell>
                <mxCell id="106" value="0" style="text;html=1;align=center;verticalAlign=middle;resizable=0;points=[];autosize=1;strokeColor=#d6b656;fillColor=#fff2cc;fontSize=20;fontStyle=1" parent="1" vertex="1">
                    <mxGeometry x="830" y="325" width="30" height="30" as="geometry"/>
                </mxCell>
                <mxCell id="107" value="1" style="text;html=1;align=center;verticalAlign=middle;resizable=0;points=[];autosize=1;strokeColor=#d6b656;fillColor=#fff2cc;fontSize=20;fontStyle=1" parent="1" vertex="1">
                    <mxGeometry x="830" y="390" width="30" height="30" as="geometry"/>
                </mxCell>
                <mxCell id="108" value="2" style="text;html=1;align=center;verticalAlign=middle;resizable=0;points=[];autosize=1;strokeColor=#d6b656;fillColor=#fff2cc;fontSize=20;fontStyle=1" parent="1" vertex="1">
                    <mxGeometry x="830" y="445" width="30" height="30" as="geometry"/>
                </mxCell>
                <mxCell id="109" value="3" style="text;html=1;align=center;verticalAlign=middle;resizable=0;points=[];autosize=1;strokeColor=#d6b656;fillColor=#fff2cc;fontSize=20;fontStyle=1" parent="1" vertex="1">
                    <mxGeometry x="830" y="510" width="30" height="30" as="geometry"/>
                </mxCell>
                <mxCell id="110" value="4" style="text;html=1;align=center;verticalAlign=middle;resizable=0;points=[];autosize=1;strokeColor=#d6b656;fillColor=#fff2cc;fontSize=20;fontStyle=1" parent="1" vertex="1">
                    <mxGeometry x="830" y="565" width="30" height="30" as="geometry"/>
                </mxCell>
                <mxCell id="142" value="" style="group" vertex="1" connectable="0" parent="1">
                    <mxGeometry x="1210" y="310" width="110" height="300" as="geometry"/>
                </mxCell>
                <mxCell id="143" value="" style="rounded=0;whiteSpace=wrap;html=1;" vertex="1" parent="142">
                    <mxGeometry width="55" height="60" as="geometry"/>
                </mxCell>
                <mxCell id="144" value="" style="rounded=0;whiteSpace=wrap;html=1;" vertex="1" parent="142">
                    <mxGeometry y="60" width="55" height="60" as="geometry"/>
                </mxCell>
                <mxCell id="145" value="" style="rounded=0;whiteSpace=wrap;html=1;" vertex="1" parent="142">
                    <mxGeometry y="120" width="55" height="60" as="geometry"/>
                </mxCell>
                <mxCell id="146" value="" style="rounded=0;whiteSpace=wrap;html=1;" vertex="1" parent="142">
                    <mxGeometry y="180" width="55" height="60" as="geometry"/>
                </mxCell>
                <mxCell id="147" value="" style="rounded=0;whiteSpace=wrap;html=1;" vertex="1" parent="142">
                    <mxGeometry y="240" width="55" height="60" as="geometry"/>
                </mxCell>
                <mxCell id="148" value="" style="rounded=0;whiteSpace=wrap;html=1;" vertex="1" parent="142">
                    <mxGeometry x="55" width="55" height="60" as="geometry"/>
                </mxCell>
                <mxCell id="149" value="" style="rounded=0;whiteSpace=wrap;html=1;" vertex="1" parent="142">
                    <mxGeometry x="55" y="60" width="55" height="60" as="geometry"/>
                </mxCell>
                <mxCell id="150" value="NULL" style="rounded=0;whiteSpace=wrap;html=1;" vertex="1" parent="142">
                    <mxGeometry x="55" y="120" width="55" height="60" as="geometry"/>
                </mxCell>
                <mxCell id="151" value="" style="rounded=0;whiteSpace=wrap;html=1;" vertex="1" parent="142">
                    <mxGeometry x="55" y="180" width="55" height="60" as="geometry"/>
                </mxCell>
                <mxCell id="152" value="" style="rounded=0;whiteSpace=wrap;html=1;" vertex="1" parent="142">
                    <mxGeometry x="55" y="240" width="55" height="60" as="geometry"/>
                </mxCell>
                <mxCell id="153" value="2" style="text;html=1;align=center;verticalAlign=middle;resizable=0;points=[];autosize=1;strokeColor=#d6b656;fillColor=#fff2cc;fontSize=20;" vertex="1" parent="142">
                    <mxGeometry x="12.5" y="15" width="30" height="30" as="geometry"/>
                </mxCell>
                <mxCell id="154" value="3" style="text;html=1;align=center;verticalAlign=middle;resizable=0;points=[];autosize=1;strokeColor=#d6b656;fillColor=#fff2cc;fontSize=20;" vertex="1" parent="142">
                    <mxGeometry x="12.5" y="80" width="30" height="30" as="geometry"/>
                </mxCell>
                <mxCell id="155" value="4" style="text;html=1;align=center;verticalAlign=middle;resizable=0;points=[];autosize=1;strokeColor=#d6b656;fillColor=#fff2cc;fontSize=20;" vertex="1" parent="142">
                    <mxGeometry x="12.5" y="135" width="30" height="30" as="geometry"/>
                </mxCell>
                <mxCell id="156" value="1" style="text;html=1;align=center;verticalAlign=middle;resizable=0;points=[];autosize=1;strokeColor=#d6b656;fillColor=#fff2cc;fontSize=20;" vertex="1" parent="142">
                    <mxGeometry x="12.5" y="200" width="30" height="30" as="geometry"/>
                </mxCell>
                <mxCell id="157" value="2" style="text;html=1;align=center;verticalAlign=middle;resizable=0;points=[];autosize=1;strokeColor=#d6b656;fillColor=#fff2cc;fontSize=20;" vertex="1" parent="142">
                    <mxGeometry x="12.5" y="255" width="30" height="30" as="geometry"/>
                </mxCell>
                <mxCell id="158" value="" style="group" vertex="1" connectable="0" parent="1">
                    <mxGeometry x="960" y="340" width="80" height="240.5" as="geometry"/>
                </mxCell>
                <mxCell id="133" value="" style="endArrow=classic;html=1;fontSize=20;" edge="1" parent="158">
                    <mxGeometry width="50" height="50" relative="1" as="geometry">
                        <mxPoint as="sourcePoint"/>
                        <mxPoint x="80" y="0.5" as="targetPoint"/>
                    </mxGeometry>
                </mxCell>
                <mxCell id="137" value="" style="endArrow=classic;html=1;fontSize=20;entryX=0;entryY=0.5;entryDx=0;entryDy=0;" edge="1" parent="158">
                    <mxGeometry width="50" height="50" relative="1" as="geometry">
                        <mxPoint y="65" as="sourcePoint"/>
                        <mxPoint x="80" y="65.5" as="targetPoint"/>
                    </mxGeometry>
                </mxCell>
                <mxCell id="138" value="" style="endArrow=classic;html=1;fontSize=20;entryX=0;entryY=0.5;entryDx=0;entryDy=0;" edge="1" parent="158">
                    <mxGeometry width="50" height="50" relative="1" as="geometry">
                        <mxPoint y="120.5" as="sourcePoint"/>
                        <mxPoint x="80" y="121" as="targetPoint"/>
                    </mxGeometry>
                </mxCell>
                <mxCell id="139" value="" style="endArrow=classic;html=1;fontSize=20;entryX=0;entryY=0.5;entryDx=0;entryDy=0;" edge="1" parent="158">
                    <mxGeometry width="50" height="50" relative="1" as="geometry">
                        <mxPoint y="185.5" as="sourcePoint"/>
                        <mxPoint x="80" y="186" as="targetPoint"/>
                    </mxGeometry>
                </mxCell>
                <mxCell id="140" value="" style="endArrow=classic;html=1;fontSize=20;entryX=0;entryY=0.5;entryDx=0;entryDy=0;" edge="1" parent="158">
                    <mxGeometry width="50" height="50" relative="1" as="geometry">
                        <mxPoint y="240" as="sourcePoint"/>
                        <mxPoint x="80" y="240.5" as="targetPoint"/>
                    </mxGeometry>
                </mxCell>
                <mxCell id="165" value="" style="group" vertex="1" connectable="0" parent="1">
                    <mxGeometry x="1120" y="340" width="90" height="240.5" as="geometry"/>
                </mxCell>
                <mxCell id="160" value="" style="endArrow=classic;html=1;fontSize=20;" edge="1" parent="165">
                    <mxGeometry width="50" height="50" relative="1" as="geometry">
                        <mxPoint as="sourcePoint"/>
                        <mxPoint x="90" as="targetPoint"/>
                    </mxGeometry>
                </mxCell>
                <mxCell id="161" value="" style="endArrow=classic;html=1;fontSize=20;entryX=0;entryY=0.5;entryDx=0;entryDy=0;" edge="1" parent="165">
                    <mxGeometry width="50" height="50" relative="1" as="geometry">
                        <mxPoint y="65" as="sourcePoint"/>
                        <mxPoint x="90" y="65.5" as="targetPoint"/>
                    </mxGeometry>
                </mxCell>
                <mxCell id="162" value="" style="endArrow=classic;html=1;fontSize=20;entryX=0;entryY=0.5;entryDx=0;entryDy=0;" edge="1" parent="165">
                    <mxGeometry width="50" height="50" relative="1" as="geometry">
                        <mxPoint y="120.5" as="sourcePoint"/>
                        <mxPoint x="90" y="121" as="targetPoint"/>
                    </mxGeometry>
                </mxCell>
                <mxCell id="163" value="" style="endArrow=classic;html=1;fontSize=20;entryX=0;entryY=0.5;entryDx=0;entryDy=0;" edge="1" parent="165">
                    <mxGeometry width="50" height="50" relative="1" as="geometry">
                        <mxPoint y="185.5" as="sourcePoint"/>
                        <mxPoint x="90" y="186" as="targetPoint"/>
                    </mxGeometry>
                </mxCell>
                <mxCell id="164" value="" style="endArrow=classic;html=1;fontSize=20;entryX=0;entryY=0.5;entryDx=0;entryDy=0;" edge="1" parent="165">
                    <mxGeometry width="50" height="50" relative="1" as="geometry">
                        <mxPoint y="240" as="sourcePoint"/>
                        <mxPoint x="90" y="240.5" as="targetPoint"/>
                    </mxGeometry>
                </mxCell>
                <mxCell id="172" value="" style="group" vertex="1" connectable="0" parent="1">
                    <mxGeometry x="1370" y="310" width="110" height="300" as="geometry"/>
                </mxCell>
                <mxCell id="173" value="" style="rounded=0;whiteSpace=wrap;html=1;" vertex="1" parent="172">
                    <mxGeometry width="55" height="60" as="geometry"/>
                </mxCell>
                <mxCell id="174" value="" style="rounded=0;whiteSpace=wrap;html=1;" vertex="1" parent="172">
                    <mxGeometry y="60" width="55" height="60" as="geometry"/>
                </mxCell>
                <mxCell id="176" value="" style="rounded=0;whiteSpace=wrap;html=1;" vertex="1" parent="172">
                    <mxGeometry y="180" width="55" height="60" as="geometry"/>
                </mxCell>
                <mxCell id="177" value="" style="rounded=0;whiteSpace=wrap;html=1;" vertex="1" parent="172">
                    <mxGeometry y="240" width="55" height="60" as="geometry"/>
                </mxCell>
                <mxCell id="178" value="NULL" style="rounded=0;whiteSpace=wrap;html=1;" vertex="1" parent="172">
                    <mxGeometry x="55" width="55" height="60" as="geometry"/>
                </mxCell>
                <mxCell id="179" value="&lt;span&gt;NULL&lt;/span&gt;" style="rounded=0;whiteSpace=wrap;html=1;" vertex="1" parent="172">
                    <mxGeometry x="55" y="60" width="55" height="60" as="geometry"/>
                </mxCell>
                <mxCell id="181" value="&lt;span&gt;NULL&lt;/span&gt;" style="rounded=0;whiteSpace=wrap;html=1;" vertex="1" parent="172">
                    <mxGeometry x="55" y="180" width="55" height="60" as="geometry"/>
                </mxCell>
                <mxCell id="182" value="&lt;span&gt;NULL&lt;/span&gt;" style="rounded=0;whiteSpace=wrap;html=1;" vertex="1" parent="172">
                    <mxGeometry x="55" y="240" width="55" height="60" as="geometry"/>
                </mxCell>
                <mxCell id="183" value="3" style="text;html=1;align=center;verticalAlign=middle;resizable=0;points=[];autosize=1;strokeColor=#d6b656;fillColor=#fff2cc;fontSize=20;" vertex="1" parent="172">
                    <mxGeometry x="12.5" y="15" width="30" height="30" as="geometry"/>
                </mxCell>
                <mxCell id="184" value="4" style="text;html=1;align=center;verticalAlign=middle;resizable=0;points=[];autosize=1;strokeColor=#d6b656;fillColor=#fff2cc;fontSize=20;" vertex="1" parent="172">
                    <mxGeometry x="12.5" y="80" width="30" height="30" as="geometry"/>
                </mxCell>
                <mxCell id="186" value="4" style="text;html=1;align=center;verticalAlign=middle;resizable=0;points=[];autosize=1;strokeColor=#d6b656;fillColor=#fff2cc;fontSize=20;" vertex="1" parent="172">
                    <mxGeometry x="12.5" y="200" width="30" height="30" as="geometry"/>
                </mxCell>
                <mxCell id="187" value="3" style="text;html=1;align=center;verticalAlign=middle;resizable=0;points=[];autosize=1;strokeColor=#d6b656;fillColor=#fff2cc;fontSize=20;" vertex="1" parent="172">
                    <mxGeometry x="12.5" y="255" width="30" height="30" as="geometry"/>
                </mxCell>
                <mxCell id="167" value="" style="endArrow=classic;html=1;fontSize=20;" edge="1" parent="1">
                    <mxGeometry width="50" height="50" relative="1" as="geometry">
                        <mxPoint x="1290" y="330" as="sourcePoint"/>
                        <mxPoint x="1380" y="330" as="targetPoint"/>
                    </mxGeometry>
                </mxCell>
                <mxCell id="168" value="" style="endArrow=classic;html=1;fontSize=20;entryX=0;entryY=0.5;entryDx=0;entryDy=0;" edge="1" parent="1">
                    <mxGeometry width="50" height="50" relative="1" as="geometry">
                        <mxPoint x="1290" y="395" as="sourcePoint"/>
                        <mxPoint x="1380" y="395.5" as="targetPoint"/>
                    </mxGeometry>
                </mxCell>
                <mxCell id="169" value="" style="endArrow=classic;html=1;fontSize=20;entryX=0;entryY=0.5;entryDx=0;entryDy=0;" edge="1" parent="1">
                    <mxGeometry width="50" height="50" relative="1" as="geometry">
                        <mxPoint x="1280" y="520" as="sourcePoint"/>
                        <mxPoint x="1370" y="520.5" as="targetPoint"/>
                    </mxGeometry>
                </mxCell>
                <mxCell id="170" value="" style="endArrow=classic;html=1;fontSize=20;entryX=0;entryY=0.5;entryDx=0;entryDy=0;" edge="1" parent="1">
                    <mxGeometry width="50" height="50" relative="1" as="geometry">
                        <mxPoint x="1280" y="585" as="sourcePoint"/>
                        <mxPoint x="1370" y="585.5" as="targetPoint"/>
                    </mxGeometry>
                </mxCell>
                <mxCell id="189" value="&lt;font style=&quot;font-size: 30px&quot;&gt;图的邻接表数组实现&lt;/font&gt;" style="text;html=1;align=center;verticalAlign=middle;resizable=0;points=[];autosize=1;strokeColor=none;fillColor=none;fontSize=20;" vertex="1" parent="1">
                    <mxGeometry x="540" y="200" width="290" height="30" as="geometry"/>
                </mxCell>
                <mxCell id="190" value="&lt;font style=&quot;font-size: 16px&quot;&gt;指针&lt;/font&gt;" style="text;html=1;align=center;verticalAlign=middle;resizable=0;points=[];autosize=1;strokeColor=none;fillColor=none;fontSize=30;" vertex="1" parent="1">
                    <mxGeometry x="950" y="250" width="50" height="50" as="geometry"/>
                </mxCell>
                <mxCell id="191" value="&lt;font style=&quot;font-size: 16px&quot;&gt;指针&lt;/font&gt;" style="text;html=1;align=center;verticalAlign=middle;resizable=0;points=[];autosize=1;strokeColor=none;fillColor=none;fontSize=30;" vertex="1" parent="1">
                    <mxGeometry x="1100" y="250" width="50" height="50" as="geometry"/>
                </mxCell>
                <mxCell id="192" value="&lt;font style=&quot;font-size: 16px&quot;&gt;指针&lt;/font&gt;" style="text;html=1;align=center;verticalAlign=middle;resizable=0;points=[];autosize=1;strokeColor=none;fillColor=none;fontSize=30;" vertex="1" parent="1">
                    <mxGeometry x="1270" y="250" width="50" height="50" as="geometry"/>
                </mxCell>
                <mxCell id="193" value="&lt;font style=&quot;font-size: 16px&quot;&gt;空指针&lt;/font&gt;" style="text;html=1;align=center;verticalAlign=middle;resizable=0;points=[];autosize=1;strokeColor=none;fillColor=none;fontSize=30;" vertex="1" parent="1">
                    <mxGeometry x="1425" y="250" width="60" height="50" as="geometry"/>
                </mxCell>
            </root>
        </mxGraphModel>
    </diagram>
    <diagram id="s3GT-jXHKrhqFiymydUQ" name="Page-1">
        <mxGraphModel dx="753" dy="1444" grid="1" gridSize="10" guides="1" tooltips="1" connect="1" arrows="1" fold="1" page="1" pageScale="1" pageWidth="4681" pageHeight="3300" math="0" shadow="0">
            <root>
                <mxCell id="0"/>
                <mxCell id="1" parent="0"/>
                <mxCell id="2" value="" style="shape=image;verticalLabelPosition=bottom;labelBackgroundColor=#ffffff;verticalAlign=top;aspect=fixed;imageAspect=0;image=data:image/png,iVBORw0KGgoAAAANSUhEUgAAAK4AAAEACAYAAAAqbU3EAAAKrGlDQ1BJQ0MgUHJvZmlsZQAASImVlwdUk8kWx+f70hstIXQIvQnSCSAl9ABKrzZCEiCUGAJBwAIiiyuwoqiIgLqiCyIKNoqsFVEsLIqKYl2QRUVdFwuiovI+4BDcfee9d949Z8788s+de+/Mmcm5AYBC44hEKbAcAKnCDHGIjzsjKjqGgXsKyEAFKAEADDjcdBErKCgAYTA7/90+3AHQ1HzLbCrWv3//X02ex0/nAgAFIRzHS+emInwCGa+5InEGAKj9iK67MkM0xZcRpomRAhF+OMUJMzw6xXHTjEZP+4SFeCCsDACezOGIEwAg6yE6I5ObgMQheyJsIeQJhAgjn4FLauoKHsJIXmCE+IgQnorPjPsuTsLfYsZJY3I4CVKe2cu04T0F6aIUTvb/eRz/21JTJLM5DJBBThT7hiAzHTmz/uQV/lIWxi0KnGUBb9p/mhMlvuGzzE33iJllHsfTX7o2ZVHALMcLvNnSOBnssFnmp3uFzrJ4RYg0V7zYgzXLHPFcXklyuFRP5LOl8XMSwyJnOVMQsWiW05ND/ed8PKS6WBIirZ8v9HGfy+st3Xtq+nf7FbClazMSw3yle+fM1c8XsuZipkdJa+PxPb3mfMKl/qIMd2kuUUqQ1J+f4iPV0zNDpWszkAs5tzZIeoZJHL+gWQbugA+EIBgwEAoAVsAeMIEFABn8rKk7CjxWiLLFgoTEDAYLeWV8BlvINZ/HsLKwsgJg6s3OXIl3/dNvEaLj5zTeUQCs3RCRNKcl1QJwyhR5fmfnNMNcAOTKATjH5UrEmTPa1HMCGEAEsoCG/CJoAl1gBMyQ6uyAE3ADXsAPBIIwEA2WAS5IBKlADFaC1WAdKATFYDPYDirBHrAPHACHwTHQCk6B8+ASuAZugD7wAAyAYfASjIIPYAKCIBxEgaiQCqQF6UOmkBXEhFwgLygACoGioVgoARJCEmg1tB4qhsqgSmgvVA8dhU5C56ErUC90DxqERqC30GcYBZNhGqwBG8DzYSbMgv3hMHgpnACnwTlwAbwJroBr4ENwC3wevgb3wQPwS3gMBVAkFB2ljTJDMVEeqEBUDCoeJUatRRWhylE1qEZUO6oLdQs1gHqF+oTGoqloBtoM7YT2RYejueg09Fp0CboSfQDdgu5E30IPokfR3zAUjDrGFOOIYWOiMAmYlZhCTDmmFtOMuYjpwwxjPmCxWDrWEGuP9cVGY5Owq7Al2F3YJuw5bC92CDuGw+FUcKY4Z1wgjoPLwBXiduIO4c7ibuKGcR/xJLwW3grvjY/BC/H5+HL8QfwZ/E38M/wEQY6gT3AkBBJ4hGxCKWE/oZ1wnTBMmCDKEw2JzsQwYhJxHbGC2Ei8SHxIfEcikXRIDqRgkoCUR6ogHSFdJg2SPpEVyCZkD/ISsoS8iVxHPke+R35HoVAMKG6UGEoGZROlnnKB8pjyUYYqYy7DluHJ5MpUybTI3JR5LUuQ1ZdlyS6TzZEtlz0ue132lRxBzkDOQ44jt1auSu6k3F25MXmqvKV8oHyqfIn8Qfkr8s8VcAoGCl4KPIUChX0KFxSGqCiqLtWDyqWup+6nXqQO07A0QxqblkQrph2m9dBGFRUUbRQjFLMUqxRPKw7QUXQDOpueQi+lH6PfoX9W0lBiKfGVNio1Kt1UGldWU3ZT5isXKTcp9yl/VmGoeKkkq2xRaVV5pIpWNVENVl2pulv1ouorNZqakxpXrUjtmNp9dVjdRD1EfZX6PvVu9TENTQ0fDZHGTo0LGq806Zpumkma2zTPaI5oUbVctARa27TOar1gKDJYjBRGBaOTMaqtru2rLdHeq92jPaFjqBOuk6/TpPNIl6jL1I3X3abboTuqp6W3UG+1XoPefX2CPlM/UX+Hfpf+uIGhQaTBBoNWg+eGyoZswxzDBsOHRhQjV6M0oxqj28ZYY6ZxsvEu4xsmsImtSaJJlcl1U9jUzlRgusu0dx5mnsM84byaeXfNyGYss0yzBrNBc7p5gHm+eav56/l682Pmb5nfNf+bha1FisV+iweWCpZ+lvmW7ZZvrUysuFZVVretKdbe1rnWbdZvbExt+Da7bfptqbYLbTfYdth+tbO3E9s12o3Y69nH2lfb32XSmEHMEuZlB4yDu0OuwymHT452jhmOxxz/cjJzSnY66PR8geEC/oL9C4acdZw5znudB1wYLrEuP7sMuGq7clxrXJ+46brx3GrdnrGMWUmsQ6zX7hbuYvdm93EPR481Huc8UZ4+nkWePV4KXuFelV6PvXW8E7wbvEd9bH1W+Zzzxfj6+27xvcvWYHPZ9exRP3u/NX6d/mT/UP9K/ycBJgHigPaF8EK/hVsXPlykv0i4qDUQBLIDtwY+CjIMSgv6NRgbHBRcFfw0xDJkdUhXKDV0eejB0A9h7mGlYQ/CjcIl4R0RshFLIuojxiM9I8siB6LmR62JuhatGi2IbovBxUTE1MaMLfZavH3x8BLbJYVL7iw1XJq19Moy1WUpy04vl13OWX48FhMbGXsw9gsnkFPDGYtjx1XHjXI9uDu4L3luvG28Eb4zv4z/LN45viz+eYJzwtaEkUTXxPLEVwIPQaXgTZJv0p6k8eTA5LrkyZTIlKZUfGps6kmhgjBZ2LlCc0XWil6RqahQNJDmmLY9bVTsL65Nh9KXprdl0JDmqFtiJPlBMpjpklmV+XFlxMrjWfJZwqzubJPsjdnPcrxzflmFXsVd1bFae/W61YNrWGv2roXWxq3tyNXNLcgdzvPJO7COuC553W/5Fvll+e/XR65vL9AoyCsY+sHnh4ZCmUJx4d0NThv2/Ij+UfBjz0brjTs3fiviFV0ttiguL/5Swi25+pPlTxU/TW6K39RTale6ezN2s3DznS2uWw6UyZfllA1tXbi1ZRtjW9G299uXb79SblO+Zwdxh2THQEVARdtOvZ2bd36pTKzsq3KvaqpWr95YPb6Lt+vmbrfdjXs09hTv+fyz4Of+vT57W2oMasr3Yfdl7nu6P2J/1y/MX+prVWuLa7/WCesGDoQc6Ky3r68/qH6wtAFukDSMHFpy6MZhz8NtjWaNe5voTcVHwBHJkRdHY4/eOeZ/rOM483jjCf0T1c3U5qIWqCW7ZbQ1sXWgLbqt96TfyY52p/bmX81/rTulfarqtOLp0jPEMwVnJs/mnB07Jzr36nzC+aGO5R0PLkRduN0Z3Nlz0f/i5Uvely50sbrOXna+fOqK45WTV5lXW6/ZXWvptu1u/s32t+Yeu56W6/bX22443GjvXdB75qbrzfO3PG9dus2+fa1vUV/vnfA7/XeX3B3o5/U/v5dy7839zPsTD/IeYh4WPZJ7VP5Y/XHN78a/Nw3YDZwe9BzsfhL65MEQd+jlH+l/fBkueEp5Wv5M61n9c6vnp0a8R268WPxi+KXo5cSrwj/l/6x+bfT6xF9uf3WPRo0OvxG/mXxb8k7lXd17m/cdY0Fjjz+kfpgYL/qo8vHAJ+anrs+Rn59NrPyC+1Lx1fhr+zf/bw8nUycnRRwxZ7oVQCEDjo8H4G0dAJRoAKg3ACAunumppw2a+R8wTeA/8UzfPW12ANQhfUkEgiF5AFRP9SDIkEU4CNHD3ABsbS0ds/3vdK8+ZYReAPJMp6h/sjkP/MNm+vjv6v7nDKai2oB/zv8C7zcEP8hzvEYAAABWZVhJZk1NACoAAAAIAAGHaQAEAAAAAQAAABoAAAAAAAOShgAHAAAAEgAAAESgAgAEAAAAAQAAAK6gAwAEAAAAAQAAAQAAAAAAQVNDSUkAAABTY3JlZW5zaG90c4OMugAAAdZpVFh0WE1MOmNvbS5hZG9iZS54bXAAAAAAADx4OnhtcG1ldGEgeG1sbnM6eD0iYWRvYmU6bnM6bWV0YS8iIHg6eG1wdGs9IlhNUCBDb3JlIDYuMC4wIj4KICAgPHJkZjpSREYgeG1sbnM6cmRmPSJodHRwOi8vd3d3LnczLm9yZy8xOTk5LzAyLzIyLXJkZi1zeW50YXgtbnMjIj4KICAgICAgPHJkZjpEZXNjcmlwdGlvbiByZGY6YWJvdXQ9IiIKICAgICAgICAgICAgeG1sbnM6ZXhpZj0iaHR0cDovL25zLmFkb2JlLmNvbS9leGlmLzEuMC8iPgogICAgICAgICA8ZXhpZjpQaXhlbFlEaW1lbnNpb24+MjU2PC9leGlmOlBpeGVsWURpbWVuc2lvbj4KICAgICAgICAgPGV4aWY6UGl4ZWxYRGltZW5zaW9uPjE3NDwvZXhpZjpQaXhlbFhEaW1lbnNpb24+CiAgICAgICAgIDxleGlmOlVzZXJDb21tZW50PlNjcmVlbnNob3Q8L2V4aWY6VXNlckNvbW1lbnQ+CiAgICAgIDwvcmRmOkRlc2NyaXB0aW9uPgogICA8L3JkZjpSREY+CjwveDp4bXBtZXRhPgpWooxBAABAAElEQVR4Ae39B7RlR3Un/lcndatbOSekbiGhjCSiDEK0JCQRTBaYHMTYGPvnmd+s5VmzZtasGc+svwNeMDYGM/6BiUMW0SDAGIQQIIIQQSJKIBqhgLLUih3ff3/q3v263u37Yr/3+r1+t7rPq3PqVNz7W7t27ao6d9HWrVuHysANKDDPKLB4ntV3UN0BBSoFBsAdAGFeUmAA3HnJtkGlB8AdYGBeUmAA3HnJtkGlB8AdYGBeUmAA3HnJtkGlB8AdYGBeUmAA3HnJtkGlB8AdYGBeUmAA3HnJtkGlB8AdYGBeUmAA3HnJtkGlB8AdYGBeUmAA3HnJtkGlB8AdYGBeUmAA3HnJtkGlB8AdYGBeUmAA3HnJtkGllw5IMHEKDA1tfzxv0aJFxTWa65dmtLiD8IlTYADcidOqAKFr8eLF9ZLUcxw4Hc7FcwK5F9TeDdz0UGAA3EnQccmSJdvFfuCBB8pDDz1UNm/eXDZt2lS2bNlSli1bVoG9cuXKsueee5ZMB8gD8G5HwikFDIA7BbLdeOON5Re/+EX5zW9+U+64446yfv36snHjxrJ06dIK0ocffrjstttuBXD33XffctBBB5Wjjz66nHDCCWX33XcfLjEldUro4ReDm3EpsGjwXYWxadSC6tprry0//vGPyy233FITkaaPeMQjKkBXrFhRfYAF4rvvvruqELfffnsFN6kMtIceemh53OMeV/bbb78qlQfgHZv+o70dAHc0ykR4Du0kLMDeeeedFXwHHnhgOeCAA8ree+9dVQGqQUpb+m/r7rnnnnLvvffWi3S+4YYbKqCPOeaYctJJJ5X999+/Rqdi9KZt8xncj6TAALgj6TH8BLSk5Lp168pPfvKTqr8a8tesWVMOO+ywQsKmo7fmpIy0ve2228qvfvWrKl3FJ4W5+++/v4aT3Bs2bCiHHHJIOe6448oRRxwxPMFTbivls4yBP5ICA+COpEd9StBed911FbSk6e/93u9VgIlgeHeJl5Mt9yQmifrxj3+8fOhDHypPe9rTymtf+9py7LHH1rgpUU3kfvSjH5Wf//znZdWqVeW0006rKkfmx3cN3OgUGDmujR5vwbxJwPzsZz8rV155ZdVFX/SiFw2D1pDOsRS4gJEvHVXia1/7Wnn7299evv/975err766StnME9gBXUd47GMfW84666wqyb/+9a+Xu+66q+aV0nvBEHyKDR0Atw/hLrvssvLDH/6w6qAXXHDBsFQVNcEKjEBGerpnCvvSl75U/s//+T/l+uuvr7nuscceFaQJ3PS9FN/E7pnPfGbtFB/84AcL05qOIN+ctNWMBn+2o8AAuF2SAJWLlGTmMrw/5jGPGUGwlIbpi09/ZQ575zvfWf7+7/++StpUCSRuwdrek7rASVV49KMfXY488siqXpjM5USvjT+iIoOHMgBuAy7DtSEeiE488cQKSiDl0ncPUAkqEzeAffe7311Bb3KWDjBTcmZ87+SVebhnnTjjjDOq9L7mmmtqR8g8Bn5/CizoBQjgSUDSXemnpCVTFTNVvmtJJw1rw0033VRB/sUvfrFcfvnl5de//nUF6fLly6saIE0CNO/bfPJdmsFYKh7/+MfXPJnbjj/++FqXto5t+oV+v6CBi/mAQU/93e9+V2f6z3rWs8rBBx88AhcJHr6h/Ac/+EH5whe+UC699NKaRvq99tqrSmoJSeF00nDZCfI5w/LZe6rJVVddVU1mOk5vPWpGgz+VAgseuKjw4IMPVrBZnqXbpt01QdVihV2Xqes973lP3ZfgnRW0c889tzzpSU8qFita4GbafsD1Thnekbx021NOOaX89Kc/rWY1wKVq9KtH5rtQ/QFwg/MmVxYFnvzkJ5d99tmnYiEB0wua++67r1jGTbOYRYnXvOY15aKLLqoTrfe///1jYinzA1aXZ1dO6J7whCfUyaFFDAsWLBNcAn/MzBfQywUPXMP8rbfeWsG4Jla50iXA8jl94ZZ47TlgynrZy15Wh3iAJ41tsJmIy/xb8LondW3OsTxMetN1B6DdnqILHrgkqIUDwMt9A8gEWAmY9IXbo2BB4iUveUldRDCcAzIHdK7JOvlneXxWDfUidQE330023105/uSpvItRg5pgwmVWn64Faoalb18BgJOKbLBUhlQbxBkrbeaRPkByvWmoH/Y6qNfA9afAgrfjWq2yeyulLRC1QGrvkZDOyVwFtNQMunDqp96n3db9ZF0CWd7yVC+bcQZuewoseIlLJwXedhKUAOolVy+IW8Bm3NHS5vt+fm8aO8+EsXZY0GAbHriRFFiwEjdBmMM83ZXLZ8DJayTJtj3lez4nz7zfFmvsu4yf9SGxc1O6MHsaBm57Cix4iQs4TiakxLWJJkG0PblmPiSBTMq2klb4zqzXzLd8ciUsWImbZKKnGpLZTOeCA1BSl1WBfqsjDdz2FFjwwM0TuUxiXEq87Uk1MyGkaK8k1ZHshxA+AG5/ui944FITmLbS9DTbwG3ZkgAGXFJX3RK4+a6Nv5DvFzxwbY6xrdAmGw5A8pptYCQ4mcEA10lg4B247Smw4IFrYw0brm2JXNpmdxZ41cHxd2aw3B2WgPZu4DoUWPDAJdGYwgzJVqs491QGdlp+e3XINjN/0y5sE486pIluANzt6b1ggZu6LLCQbJZ8fZ0GYBJALblmQwKrE2uCBRGrc86kDVx/CixY4CIHPZJjw3VUxwFJu7KAFIgSrONJvLHej/WuFt79kx3piiuuqOUefvjhI44OtXEH92Vw5gx4WRV8mMMGcsfSzeoBybsE1Fhg6QVnbxrvhbnct5d8UyUhbe0LtmVyIG3HovgCB26CCXDM4J/4xCdWPffmm2+u4KI2TNa1oE2ATiQPcb/73e/W1TKnMGyzFDZw/SmwoFWFJEkCxNEby6ykXprHMs5k/ARv6+d9bz7C7UfwLQZft3nkIx9Zz69lnXrjD547FBgAt4sEACJhzz///ELifuc736mTJK9HA1036aiSkSRPNSD9TNP6rAgOX9KznV/zaSZ1UC51RdqBG0mBAUW69EgJZzbv00jsuY6dW3rlgGg8AItHeuYOM/sf8j7z4HOZH+nuyzn02qc//enl5JNPrmfOvv3tb9eJos4kj4mU3cl5YfwdALeHzwBsonbUUUfV07rvete7hpeDe6JWSdsCiprhA85PfepT6wc+Tj311OFdZ23aTOMouu+T0Wd96okzUXzKU55SpaxvijGNAW92rDafhXw/+Fpjl/sJDMMyk5gv2vjyoqEb0AAZoIEsHansjFkO53ZzOSdGP/bOcrKjPvwEq3Lyi+Y29pDwpKzjOt5lPOqCY+725vrWA5d1zPIXsj8AbhcQAOMyvLOlUhFMlFgbzPaZqiwPA7DFCmDMQ5LjAQjg5Gcjj85geVlZDkU+6lGPGrFClsC15GtBxMdHWBlYPFLXHQA4DqaOR/SF8D5Bq60kLYnrdC1JyJ1zzjn1i+RsvKSkzy9ZjnUBMEC5AFleJC+JC2B8n9XPT+pLT6Xwvd01cRyexBYvAas8z2zKQA3AdGASefXq1VVtEGehu4HEDQQAjeGehPOp0LVr11bQCjcxSsnqRLBP6gOwWT8paqEAgElmEhkQxculW99sAFZ50H99ZokETZeLHAncBLFyU7f9l3/5l6peUBmAlxNvIbsFD9wEDCn6t3/7t+U18VUan/0EmgRVC5AEOTB+73vfK29729vq9xVISBYFaUhZzz6VT2oCG6uBiReX+cprLABmPNLc93PFPfPMM2t+Y6Vr67ur3i9oVSGB88tf/rL867/+a7nwwgurLXUs0AIMINnDa6LmB0he/epXV4kLaNQA7zk+CSy/7CDC5ZH5eB7NZT7eP+MZzyj/9m//Vr8rZkebjUELGbwL1hyWQLJiZQJkU4ufcQK8XkBk3AQcINE9SWkTOCDKfb027JCsLhYBwG3TAzdACnPfW5a8e5048qcXU0NMHvmZb2/8hfC8IIELMJwZPn2V/umDdyRZC84EVRuWoKDf+nI5ywCJyiUQM36vn2n5QDdZ4CmLnkx/trKnvKnk09Zjvt4vKOAmkACN5cDeAB8E8as3Zu0mRAnq8RjKckDPpcfm5G0iQGzjTAZ06s6xdNCb2YJZQNK1+WbYruwvGB03GW+Ydm9J1XB7+umnV7MU0HLjgSkBYkWLusCaQB2Yaadc9aaCqLMJIDOZ8pnV8n3Wb6brs7PzX1ASN5n65S9/uW5fZJqysSWlbOqemAIkCfaWSfIwVDOHWVUzScu4/eK3aafjXl3p4X5uypLyRz/60bpaJ3w2yp+ONkxHHgsCuBiaoPSrOk462AXmtx6S4SmxkqieE+jC2nvqhR86sfiQS8JtnJkGkNEBeG0G0ga2Zx2JCkQSLwS3ywMXiICOTmon1je/+c0K2tXdVagW1BNluLwsDRumc2LWpm1B3oaPd68u7TVefOBlJlOeDTusHPTthfC9sV0auEDA0UVzo7aNMiY3mM6RxBN1CUigBV6LCukmA7hMMxVfHbIeRgvmNz81Ref2U1O+yWDxg+TN9k+lnLmeZuJcm+st6VO/ZDKzFWnL3MUWyr7KJQAyae9zhrc+MJjU6Qz5MejpAkjWN8vLzpDP6bfxgJe6oDOqF0sJiZsTxumqW5Y9V/yZnw7vxJZisI9r+BUbeqHl0rTVTgSk/aoOsABC4jKFjQaufmknGqZuEwFc2waWBiDWQUlhE8+J5DHROs21eLsscDEVWL/yla9UBtrc7Ys1mOvdRMHRyzDSjKrA2VzTmtGEtWDyPFXX1g8Ax8rXe7q2PRba54cGjQb2+qb5b6z0U63jzky3S6oKyaRPfOITVdejHlh1SgmUoPCcYRNlgkUH+qSJGdemz3Inmtd0xlMPKpAFCtf//t//u26nzDKm0tZMOxf9XQq4mAM8JiY2pBjSqQd0QM77lEDup+IAV/79vnsw1TxHq0fbEcbL23vS3wKF5Wt23s985jP1NEa2ebRy5mP4LgVcDGJjZael1/qxO5KWSxXBfQuCFhzejefM2qkLaVFQpks+k81rvLK8b/Ns6z1WWuBlp6Y+WBZ2lCjNdhPNY6z858K7eQ9cjHBhsInTddddV3/F3Cw7v06T7xF8RxmXnwDNX+mZDSb2gne0NojnnctuMsd9rPLZSOQUhg62q7h53xJMSoY4y4VJlmGpCGmrHYtZo4GgXxodg0SXrxUzrgVVvzTTFTZeOfmeb3ShNpxwwgl12yXLSprJklbTVa+dlc+8BG5KFX4yzJJn/vjz85///GFgtYTNuOOFte/zXlrHcACCNBvNFpzxZ8JXh7z65Z/v+OlYGlg/LMA4Ocy17zPefPPnJXARGWhJFhKEzmkyxrbqoxrCesGNWRk2WcZlfJ3DB/FI29QZ5yLD1deFPkYHexrs43XKg/TlvE96zMU2jFeneQfcJDbC5+rQxz72sXqMxoc0bHzhvB/LeT9enN709EVpUk3wXn0mm09vvjP5DLxGB6c7WBre+973Dn/gJNUGbZhvbt4BF0gQ3IUpTD6kn7NfuQSLCQko8RPsyZypMsp3EUiw9qMgmedc9rXXapoN8yatTg07Lt+6qdKkzWM27+cVcJO4wGiSlN/Xsi+V2StVhCSg+Jkmw6bqs92yC5PodFwu805/qnnPRDo0cnE6OKfeJq3qazeZr+60NJuL7agV7/NnXgFX/RO0rAdstUDrOwV2RCXh0+/T3mFm9ns3VpjVMqoCNWE+SVz0asHpYKfPqZK4JmvMe0YsNEugj0WHufJuXu1VwACO2Yt5h5Slu43mMKIfiCfKoEwrvv0JpK5NOi2jM85odZhL4SQvq4iOzq5rQ4622RZpH+98asu8AG4LNGYdK2OrVq2qq0OzBQybtOmJOTFLJqtb3s9WXaZajrrqdOzRVhWNIr7eY6XNxE07WlpPtZzZSDfngZvA4DNH+aYAPfPZz372CPpMFDwTZU7ml1LeR0N0lha4WbcRFZnjD+qc1hj6rvb5Ik8eulT9bPtcbsqc1nERmeMb2pxqNcEgLfKd95MhdJtO2ok6nYZum+a2iaabi/GSBtQDCxSWxtnBcwPRXKxzb51mFbiTAVhbUUZ/+2pJPKdyTTDSjZXnWO8y/Vh+MtjQyhRGVaDjcvlurPRz+V3SRmcEXJviP//5z9fJ2lyud9Zth4GLAJO9FJ6Ey4r0+gkMZi9f5gZe+0xtJ/Quy+xNN13Pysg6pM2TmpDD7HSVszPzQUNtJAiMYjooM5nRLdu+o/VLPo3H78mWM2XgZsP4LrrSeJeJQeqMKpqN6q10NhIhTR582pP1YPXq1RU4aZfsTTcTz+piYkba27yj/srP9s9EmbOZp/ZpE4nrlIifhWUmM3GbaBsTA/38FhOZX/K99Sfb5klNzrLgLKR9ZmbJS4XyHR9gW9AKcwGAuFzGz7TyYq4hbR//+MdXFUG82QYNE5jDlnRbEjeBqy67ikNrdLfh3kYiNnLtZCbDl+RR297kV/JDHPetk694CV7vkr/iZtrMK/02j9HuJwXcbEBvAT6OQSq5bFqmD3IqbAJgxupriOyuubE739sgk40T5t7lwx0+7GaJ0iaRJEpv2dLMpANcG1N2Jf22l174hLc2KTk9wQdeizoOXfa6lgf4YhGDbR3/YcGzPOVjpDKhtvE++S89QaZM9O0Var3l9XueEHAVpPcoIJ1VJLvrrV75gJw1/GQukAJr/u6BpVKz8ksvvbRu+PBpTnbD1TH0AzaHABqiwfIkbUmAc889t75viVUDZumPhQftUBdt3FUd+uYiBEnL2SZqlLFggf8uYObMOQgWG/dJaeH4D6hAaoQCXCCGFQLtq1/9ao0jP9YMQLYBiPCS92TmDxMCroomaFXAhycMnypJNzrllFOqr7IarxGYrDImVxqQIPaVQWHML4hic4wLYLnf/va3NX/6pCPXCJpDSo0wS3+UqyPR9XQ8k8KkwSxVYdaLyTaznOCp9lPV8NUETvvzuD/+iwekJs32/AIuILrgAN+AFjBdRmJSGf9ZieSL9za8J58n2uhxgStDTsF6oJUrvQ1gDeOOsACZ3qJCJJRZqUoDo8Y4Ji0fv1ijl+XQQgrrBIDhx0IQRi9OQMsb8abLySvbM1aeGU/HQ2zEt/NsMhJhrPzn+jvtz5+xwk8gs8+Z0MF/nRmQ81eJgBav4QIv+fIg2IAzpbTO75LnunXrKoiphNQLZk6jtHQTceP+BoSMMNDeAMO33mTYJO7Tpkm/8U5lSGQVSeDqkWviM5guwE0brDwRwooUVUMjhZHOjpNrICcfbiKAqxHH+KMt4+WThEtG6Eh+rvSv//qva8fK92MUs0u8SjqRsB/+8IeroNJ2gggve/mPj0BNohJc4gK/uPCCn57hJx2pzWrE3EgPNsISiFxLZ3XJ+mTaUSWuiICkB6mQ3/oi1inrJCJAqaAeY3+nLYbiASGFO53eRlrpUWvXri3Pfe5zayOAHpBdQG93vi+Ev/a1rx0+QTudoFWf3sZnHXv9JBr1RhvVcVdXE3ppgPboZTQFPvz165f0X3sbOCOsEfPiiy+uPx+L/+iV/Jce76kdeO/kcX60xOjV8t9HTEjipz3tabXM5EGqkJ5H8C8qONTviohDkdFQ6DhDf/M3fzMUttQaT3hIxaHoiUPveMc7hkJdINuHr8h8KHrPUEzQhgK0w+HihN4z9JznPGcopPdQNK7mF51DlkMxHA/Fz48OfepTn6p5C/OuX91mMkyZ6sbFCDL09re/fSg2q9dnf2ay7LmQ93BD4wb/4+uWQ29605uGApSVH2gTauNQqANDAbahGB1H8BifQ8UbCuk6IjwE1dALX/jCofi9jWG+ykebuVhuHnrnO99ZaR2jdo0TdvzKCzxJLNTI8aevqgDZ9BRWA5taosB6ZikSV12GKmB58L//9/9eJ2lR2TocMKXokawKeooexJjtQ8pWZEgwedsg8xd/8Re1J4oX9ajx9dR3v/vddUhhuzW8eOca0dsUOENOWUHMqs+ybvgazvOe97xaV0V6vys77cMTKhuekbS///u/X+cz2XbvqFD/7b/9t/KNb3yjkgOvmC1hwM/A4qWN6pfF/hITPCoENcPxqje/+c0VL8pBa6OZexL8/e9/f53oJf/NrbxztRhY8j/+x//4i5YR+dJqFVOHIT4/3a4AFaI2vDfOLvE5G5Pf8IY31J9NsuPIpM3wYg3ccRF5sDLQaSj2fAq9OBTyrLz86UF0ZSAXp9WJ2nrO9D0mUV3obphBPVoILoHLjmvox8O05eY7qt0HPvCBemyKMMPfP/7jPy4XXXRRBSad1sXaQDXAQ7qyyxzI/giWBBO3BKW8WSKS/zqHeyplCszEJj701XEBy0Vh9lEJDrhkbJZtP6xf/eZYCV75yleWZz7zmbWntZl7r2BgpuvSlzVYz6LTmITpnQCr4tLSeyjrJnw6j04xW04dXOqjrvQ19c8TD97t6k7b8/eGdVaSj9N2IAMoei1JakmevvuCF7ygjqJA3uuAVzw8JZCMwuz59F2CCaY4vIcxeDKi4z8rFvz1o3vfvQoqRlVQEb2FlFVpjsj3Xu/hNOzss88etgKI23sBrZ5HuffrNpxeq0crR94qnRVkGgMYEt9kT6N6O0TNZAb/AC4CYh7mqN+u6tCdVEsa46+RkdTEf8N1OhLT78LlNyxYF84777yqSoojn8wPDjgjMACyMHFUMLw3qnLJ9ywf/43QpD7+A7c4GU+aEcCVkIlK5QzhpB9nBqgncqQQO6wwTLX5hUjnpBcvxX/6CsR8Q4pGcPJQKcBtnbh0IZIYWDRyNl0Sj+2WdEgVQXhLuNms00yXpV3ZNtKWUGJDT/6nYFEPfEu6GOrtKgPeBJe4XPIekAkhZtAUWvgOY6Q3l0ILjUlnnYU1Qlqjbj/aD6sKyTC9jQgHMpXRa4Ax3wO0IR5w9RiVJlHTiddbkGd5qFCaUoSppIvz3DofsEAkdj7qgvJmwyXhtU3bqUu7utPmFEykqTaTevgKPK0DPosRzGSEHP3ffT8HkImFvM948s28k+Y6T/IZrnQQgksZwluMDKNBxi5WAHY34E0nPDP3jmKNqQrWOAAXh8uK8vNeuErpYbkBB6GkS4JlHD6nN6sDQup1JnnyUw5/up36tfkaKj3r+VxKpOkudy7lh6ckrlEx9Xr8ybYTMkZXVgY/miI+NcKwnnHa9uAVHqOl/QxWSjl5420KMWFonUCWlwUpHcLIl/wXL91ikVyASXwDlmEi9ToVl2ky1bOK5nIeKSptGyfjZiF80lOnoLdyhg9EANDRnIp7Tx9K149A+W5H/LbOOhj9Vlm7OnC1MdsOWPhkWKeuASaX7xMLiRegxEfvheWVfCDUvMM/ZtXckG8hi0RvgQvk8nelEARwcUjdrEPmvTQrzqcMGyZS9Oe7rFj6bWMyo36+9Bzf5hmWBDoyZ52bDoVAvS7L9U7PXBezUb0dIVLy96bZ0eeWMKweLh1U50pC7mgZczm9NtpETqd3oXNKwKx30ij5KrwNA7rWEYK2Cnz84x8vX/ziF+uIi5/s4iZ+hv9e2ibv5YP/JnQm8lQ3nSRdVRUUrpJMYHQY0rSfayvc3veLm2HyNkz4fbHLL7+8BquwWeaasOMi0Gh5pVR2CtUs30ggv9HiZ5k76iO4ITAnZjNd3o7WdzrSAxDhoqOmJExQTiR/fCStYUg+1APzEwsY1D0Ci5Uq1YxURdBWOf34ajS3dwH4+wJXxVTcbI8YJ2m40TKsLyfwR3oNsLry2c9+tjZEMnqyYyJW2DiVzwbUgO4fACf9WR4o6horbCZc1gEDrPgYJk1EOe1o/fqwC/4xlBvCAWayDo1M1vxE6yWXXFI7PutEjrAm2/Ti173udXWOhN4w1yu45OMdRxWhKlLdALd1wyiQCUWYlJNgR50KYD7d5kMf+lDdRKwMQ8VLX/rSav9VqaxkgiPLFZcj/Uk/lc+wjDPdftYldTHSZ1d32WbtJDHxf6rCwfF2m65IyHT4SsUjgAgCAHQRjkDbzyUWvBcPLqVR13w3DFwZUBcAZUeBm5lb6/77v//7ulJCZyQxX/SiF5U//MM/rA1pgShNS0T3dKYctvo1cLrCsr6Zn5FHWAK3933G25V8bSRo8GgqEhctCBh6qcUmEzwqIilsoktdAGifhP3zP//z4uPbKbiUnbxvfcCFRxdsepe8GAauQEByZeKpMEbGJlImYvaw0k+BlpJts85//s//ueqOvWX0PmfZwtuGZfh0+lk2Qqk76Y6B2WlmuvzpbMuO5AUceAXAYwmvBE9bljQWo+ixaEjooCPg2rJq6yurEtPW//pf/6vijL6bwqHNq72XL3WzFXLeDwNXZQwRIqVtrs1gIvfyIK38mvdb3/rWujQsPzuH9LB2r+14+ckrK+3eNZMu82cSxECSo53Fep8An8l6zHbe2W5t03FNTAFO2/PdROokLZq50glbvXp1XQ7m//M//3Pdccg8ZhcY0NqzQJVIl3Tm44P5jXujQFufYeAqREYi6jGTdTJVIdsd6bR2jukljNkkrY0YVuPEmwgA1EfFTcpUeiydaLJ1HSs+4HJ0MlJHG9RlITjzDzTvlW7aPh7P8LUFljSegXJ1gBZAqQwwonNQHWzWsvMsbeVZjrKkVRe6LVUhRz9xuMVZGGlLMgKKHjdZxwb8kY98pPaqb33rW7XxZqh2jr3iFa+oFQSErNRE8idxTRj0YpXvtRNOJI/JxmFRQAv6F9ePiZPNcz7E1zntzCK4evnfC1qYyWustrXp7D1hSWK/VRa+AjF6j+aM/CZmrd6deVZRohIysyCgVwAvl6DuzVhil/ekMwPx+973vhI72KsCTjqSrkwf1AP38geCiTQ4y0NECr5FEUAarT4Zf7J+tqNNp/16d9pw23e7+r1FIfRmMx/NoRlJmNKQL6yfa/kFEyQr4GY4681YZZG26sMasZ2qIJMEoQkUu5tLhVLCZUFZOQDMNOtiVesv//Ivq53WEIDpgGoSRvnOGWqCNtNlXr1+1ke4RlHuV8dQo+HcaESqLyf5J8vKOqWEXxMLIwsJuHiNPza2sMHif06wWnq7JwEBjqQk4OwhAax+WBFfvi6jLb05F5GwSvhYDv/tnVCv5H/GH9ZxZQK4Ligneei8wknL1qmkSjkd4PiO5TyFAKmjGcwdDr21LsHfSt72fd7LVxx+rmD5eMhMOGW4sm6GSO1uD4Tmu5kof67kqY3UI+oYPZeejw7tiVtxgBmvnfqln8IBc6ePtkiLlr1OusSPoR9PMx4VoJ0AZ7j4OhO7sDKZ13rdsI7rhYoYLvQokm40RzLZSPzGN76x2miBVq978YtfXCUt8HIqklfmpSO0YMj36Wc8PdrSITWBfsSJMxMu64Oo2kbapjkoiT4T5c6FPLU928+3woX/uZOrrSPBZLJFIpOEeGSByZDOARvX8gn94IqZzehsLqQcgNUx8DfTSJdSOOugI9G9M069iT/DojQrT9ooSMUwsh/jSFpLe5Zxmb9IZqCl09o72yvW5Z1XFpz+aOGObqh8nnfK+DPlI5rOaiLYzmCTCenPVPlzJV+jW/KfQOp11CjCjQNYpk+rZUYrUptUBWD0amkGT9QQuwMJB8LI9ljY4RJ/6eM/bDnv2Lp8Pzw5y5d6wOrQKYFW7+h1MrNZ5pOf/GTtcXqgoeLCCy+sBmig1WtcWfl8zt6U4W3DVMizjuJ4EGnLJOXMUsbvrct0PWfZiNq7ySgJNV1lzfV8SDjgBFqbZHodbNggBbz4acshIcb8aTIND0YrfHQBsnwsQAAuHVm4c4j041w9Uw5a6zRUVfscjHzmS1xipz7En2EdNwP4wMJcYZsbxVhjgEfGwOyTPCqsAoYPvYei7gBlDhfyEb+X8Z4TsMxvZpqGDRWTn/SOxZN+VmE0pE0j3+lybYdQvpHEURT62kJ2NkEBGP4DKDUQX/CBXopG7LL/9//+38p3R/gB1AgJaKm3wgRJe9lll1X7PvUSsK2w5dbGxAde4D9pbHUNP2z4gq8su+XJMHDbDMz8/H6YXqRQ0pQzHDAcuzgFCdObfMRuNNcCz73Kkcwve9nLqooB+CpqqDHs0IX0eJIXiA0XAMwl6Ecra7Lh2W7tQHidNAmf5WWcyeY9X+OjAdCgvW8i+PpQCha0IFDwjmSkLppEWQmzC5Dt3j4F8fDPkO+i4+KvtP/xP/7HatMlIABeeNIYtoy28tEJUhB6n3HQdRi4HoDCS34elNObvhqfh3SSN4GkF3EA6GLHnYpzdk2DOJU31Ji1OmNE/9FDP/3pT9ceaBGjbaA6jgXitpFj1U08M1cTDUMcVSk7SaYbq5yMs6v5qQp87nOfq4A0tHNoAXCk7l/91V9V8xa1EXipWnnCpZce0jgNDLQ+HCIfoCT8klf4D2s+KmNuk1jM922eI4CbEdIH3j/4gz+oO9iJfT2JpMRggOUrPIfzTJcN7MdwcVzSmggZCjhqhvP2DuJRT0yQAFsdqCb2PjCxGcY4ebvaMuuL7p+x3mV6vvSAS3rQqelViDlwpeq6luuB19xm7dq1VVVIwLFAAK8vE9kwzkRGiNFPxbHfenXoxKQ3XrqMrqRsAhZ2YMnOMXy2uiY+lYKUH831/QRTRsZUFTB0GzI8G0aBjlMgl+BJvwbGn9GAq7Ly0KuBly5FulLWqQU6h7Qap/KIRoUg8ZlQqDHszeqWZWZZ+dzWK+vT+uK71MXs2A4m+vuf/umfjpgwtGkWwn1LP+1F49RTSU2S0OpXOvxBPyYynZ+6RT/mCAFqJ8sBPdmz/FPtECf38JpfUA/YbAkQTtnpeoXJmMCVKBuCqYYB4lxlgM7kKkGsMgnkLCzTy0PBbeHASPcBRj0QIPVI6gCXwMo0JD6l3fq23kiVoC+Jn3FrwuZP1r0JqrficwlcE1HDnXq8+tWvHu44NdIC/NOPbiQp4WIugFfJ/17yoGECTj7wkTxs4wI4XuI/7JDOQGsEFj95lGl66zRCVchIrZ8ZAIoek5LP5MnqCkWeSUOBJCUJ1s+pHIDojUBIigOvNFQDlW4bqKIu6TiS2Vdz9Hr7Og1LtkwCrx4qrrpmffvVoQ1r46mTSz1Gq3+bdle/R5teoNjlh8e+u0HgAJ4VNnMC9McX7wE1hVnSiUCjjgE13DC1Jv+phLCVq2NAj+e95Wde6Y8rcTMiP4FE8togruJUBxLY6gYQAyKJyM9NySquskxcelgSxpBPZwVKTngCKkHsOcErTB10GF8LNAoAruFL2SmtM6/RGt+WIy47o0mgPcMYBLxZD+8XsuulIV5S7ZxuwX+8Nvehu8IBPOA98KIhsBIwqUrAAH668B9gCcR0yevecvN9+pMC7nCiAA9HCadU64EqpjepJICtCSM2s0aCVyP0TjqsHqbSo7kE1ljglZZe5OizhlPqgQ7BNHos4LXvDH3aYALyX/7Lf6lSI4mW/mj1XAjhY9EAcE2qWWRyid6oSp+lRhJWLoKA/RewYcDImQsLScMEbD6PVa44OwRchSW4SEHDLR2YT+R7RxLSZUhHupGl4dEcQKlwC6xsgLC85JvhJIBP3VMfAJflwbCVLgmS8du85WNiYeLJDOOoUZaR8TOfhexPhBakMD4QYL7cia6EiNGUOsAH3lQj8AWt5Z1+S+PxyhxXx20zy/tkfpt56joq1Oophg4VB2gzyPFc5p3x2ucsr20o9YAJbXWYXejfDuOR6iwUHHC2efTmS9/O40XeJSEz3sDvqHBJ+6RH0jTDW6mK/gRKChhx8pJe2hQomR8/82rDRrufEnDbzLIBwlTelb0q4xk6KPB0Y0NHO5kSR4XbfDJdPz8bJ35eymNK0UFIdit+TDMWMvT0Nv/2Xv7qQ0rkDqR+ZQ7COmDrpQP6AyCe6/zASqoCbGKhTZP84uND8rKNM9H7abW0txXToLwo6/RQijqVol9vm2iFe+NpPIIBLxONDSCrQ/qaBNgMRA+mZyeR1JHLZ3o5vSzPPeX73nIGz9tTIGnojZGL5YBlgTPq9qOlNIDdSmPx27w8j+emFbj9CsvKAy7dE6AyrF/8qYQhQnYGxm4bQGzPMzkkfW0IAs4kWlsGfVyHoounmywRM91C8pNGyUsSV1haiHLU9T6v0eiTeY32vl/4jAG3tzJpNmPIBrTpcL1lAG8SiZnFcjVpbzkSgIGUk87lmaRQN+rLwE2eAskDoxrTWB4ynXxOk0sxPQgapcwEiNckLnOI2Wf20lGSTTo4y+EncGUCjNbabW7XYZzr91G2jA+4Zr8mlikpJl34Ak9ACBmxTL5NlGeLjjs8ORuPb0DCpcTVSICZLgmX+Wc92ufsIGzGdNj8BBA7MpMN/RbBTShMJjJ+5jXw+1OgpbF7+iw6zqbEnXHgZtPpPCQb5d3CBQuAsNkAC+LSfa2wAalVPx8uYVEwsbPyk059WsZk+MDfngJJJ5MyqgJpa2SdDTcrwAUGQwopmxM0W+I0fCaBm4RNMFJV6GAkgx1P1t11nlwnT4Jn/Hwe+NtTIPmGxqQtAWA+kSPXTNNwRnXc3uZSF0hdEldDZ9MloQGV6uDSmdh77Z+wZCmOMFfrMm0bNrjfRoG02ODvbLmRHJrhUinv9tFaQTObn23XApD5yxKxzSFsyw7yMZ9lh2ql9WzXc76Vh34EQrvUnvSbqbbMOnBtvjA5c6XttQXUTDU0882ybKm0wcaCBbOZIe4tb3lL/eS/8IGbOAXQkvrVAnfiqacWc1Z03KwaiZsfVgNc0k2DE0wZbzZ86gqw0nkR/FWvelU9feokhN1uPmpiJY7kUD/XTEuR2Wj3TJSRO8BMuLnZoNWsSlyNsm8BWOlFvZJtpoGRAFQPW/IA1oQtnf0O7L70cMvFzsCZeGS9Mj1/4LYt01IVZlvizhpwk9kmPsxPGtur52acmQRFgtCkzAiQ5htqi7oZEewXXR37HUhlEth+h5y05cQtQTyTdZ0veTOFMXPmPoXZqPesAbdtDFDQi6gLs+mA1gV0Og3zTQ5v6sGQ7rJY4aMVFiqMCpaMnXezHs8B72x0slrYHP6DBjlqoiOpO1tupwDXkXN6UUrclIIz3egsh+mLo98mcDEh35O+JLEFC5+XEm6zuYULHY6jH2f8GrBA/mhz0so9CxFaMIUZwXLCPdPk2CnAdRJC41OCzXQje/O3+IDYVtFSSiRDMi4GuKy4vfzlL69HTUheX+xhNuOkcS0U16+thADAEgD82XKzClxgdVkaBBoSl+RtXT/itO+n497Wyla/VSeOCpDlZ12pDpY0nWnzdXWWEN+HNXFLJ02my7CF4pvkaruJLj9pOdPtn1XgaoyGUeIN00DbC1zvZxoEhnuqQNodc3hria4OWQ/SmfMlR9/R8jkqu8x8LytVB+8zfvrCdjWHRi2dtD9Vhdls66wDN5lK4jI19QI3Gy9exs2wqfptZ7A7TZnMchOZBWcdEtw6nCP1jgXZe/GpT32q7vW1PZLL+FOt63xLZ4JNAJjocrPV/lkFbttb2U8Nw+y5YzV4uglBr7adUfn9gNuvvAxTX22QznKxj7PR152l8yPbdOcEOJWilUy1kbvYHyqUDqszW/JNl/TK55nwZxW4bQPsWTDEANF4DiGmSozetKRtbh4HwH7g6i2rfQbMTMMe7Qda2H7pzb4x4OMiOoe2tenGa+N8e48OTGFsuEaeVKdmqx2zCtyWkWylgEPiplksAcHP+yRE73OGT8TPcklBkwnSgY4rXL75Pn15us8ry8hnaVKyCrM8TO+Vv+8z+DyU+8yHvyP1rxnNoT/arD1AC7wm27NpUUCKWQWuArPRqdBrfKoL3rcOcfJqwyd7nyBDZEeHbPTpVRPUayzX731aHKRjm/YD22y/vvHrd99ygSXbnPl77pdfvp/rftbdHAXv0qw4m51zpwEXc+wJYIIiBVs3HWBt80tC08nsve0H3Db+aPe9gFN30jsZ5tkHj//kT/6kTlje9a53Fb+yqXPqqBkv/azXaOXN9XAd02TX5Ez7UkDMRr1nHbiYlg1kXrIA0PvTRL0AmS5CAK5OYkKVCw9Tybutn/bkJS/g1S5f17HnwdF4nyZiPvOuTSv+fAFvbz2NNoBrxSxHr+Srds20m3Xgtg2ymRuAUuImcVIitXGnep95IbSJIOKS9NM9mUjwyl87mNuoDT4FpWxflzR5I317Xba7N3wuPic96fA2SrHOpEVhNtux04CLACZIlgpNzkjDtuFJoOlgnnwBxvIk0w2djPTjvGvLnWx5mTZ96dUdY7XNh0l8S4tU8nkoAPbJp17Xpu99NxefqQgWH1hWcmI2m22YdeBqXDaQ0Rp4ST/mJC7fZ5zRmDbe+950JmaAS9rm0fjp6hxZl8zPs45B+rpsSPcVSb5flfHrNNQjzE8nbeaTYXPNz/apV0pcalECdzbrO+vATQbxATaN17lxZaYan6t0hvAc2lpGTEe5vcDLZ+Alfa22OSZE77344ovrzzHlRiNxsj6ZbjrqNB15tPXJeyMkmzh1L4HrXb6fjnLHymPWgdtbGdLPMJp6bu/76XoGXOqCiRmXIJmu/DOfZB6/LSPvDa1+WZ7+e1n8hpxfZcxjRJkm42aec8lPYBotzBmoXdM9X5hIe3cKcJNBKkgSaXw/vW+0BiTxRnvfG47IJhJWzPxIBjcb4GjrqTxSNZ2N6jbsMN77gUPfNuP6WR4yzVzxtYVFwcQa/3aGm70NlKO0jg2Q3mniYpKGkS2wJUOoFgQZNkqW2wXTb+Vtdg+4CdrePLdLOA0BvW2RJQAzI/nZJe21TOyEBcnrl4fojRlP+tmoZy1wgn+oCWkKA9yk5wSTT0u0nQpcDU7gIgSdCSFyxj8dLcR0EpeqIF+dZLYJ3QIvywZeuqHvOlCX6N0+zGezuh9ksf8BuMV3tXlMB112JA/AJQioeClxs107ku9k0u4UVSErqLHAlJYFP0HUDqcZrx/T+oVl/F6fikC/Vc5cctqKBurlZ0LPOeecCgj2Xj8LoCNrJxrNNjCSTknntvwEro6V2xnb95l2Jv2dBtwkiMbptXaL2UdgOJ9uZz0dsUm31s02sZXdttuzOmRn9T01+x1YPth7bdiZjO4vv5l0Sa8WuCZmvW2ayTpk3jsNuFkBPnXBJhW/nJMumZnP/fzxCJbvGcpJXHsU0nmX7zNstvx+5Wqvi8rgE6jPeMYzqt35H//xH6v+S+pmndOfrfpmOckTwKXa4RvXrz2ZZqb8nabjamz2YLNTEtePENNFDT8YNZ7L9OPFS4lLks0VNxqztck7v3JpOfX73/9+/fFAX9dx7o3dO13mMVE6ZLqp+lke1UuZSc/ZKr+t9/joaGNP433bWJMUkyaEIR29c9/G6Vd0ErLfuwzTERDaRMIMnpPveHln+tnys078lGyAYaOOzer03c985jP149S54pZpZqqOvfTNZ/RUx7R+7Axa7jTgJrERAEFMUADLQgTz1XQ55/4NbSRVzoCnK++ZzAddAILFwfd7bZfUBj8E7ZiQ5Wt0SzDNZF0yb6OgelG71K39wRdxZrMuO11VQIBc+iVhABdhSMgkhDh5j0DtcxvuHec9AssXcEko0oH+KHwuumyHuqdzn21lIqM6OF3hbBtz1EknnVTnBqlWjdY2ebvavLOMyfomz0YxvvpwWcfJ5rUj8Xe6xM3K02uBi0ks1+/z3WT8ZE5aJwDXhpB+G2sy7mTyn+m4CbLWV6bhmYRjMrPjzLfPvvzlL1fbb6/qoF392ibPybjMp81LWfijkxghk84ZdzL570jcOQNcjbCqhTB5gDKZlw1sCd8SM9/zM05upDH7dd9Oatr48+Vex06JStL6uo59D//0T/9UP8zHbGaEQZeMlzSaTlBR46heubEm6dfLqwyfKX+nA1eDk8C2/SEMK0ArRfo1PgE62jvv5SEvum3OgPvFnw9hbXsBkyr1nOc8p/zZn/1ZtX9/5CMfqYsWAKWjip9pErhJ5x1pL3qS/u1iTlvWjuQ9mbQ7Hbgqm4S1QKA3k7j8dC0DMiyZkH6Gtz4CywtwbeTpjZv5tmnm8n0LkGzLmjVryoUXXlh1XRt1Pve5z1UbK703dd/edvY+T6bNKVRYgTj12JH8JlN2G3fOADcrBWAAl5aFZFY/H9FcJJArmZl5ITL9li7GVixOEjn9jDuffHXPtgMnFctPAlAh6J/OuFnM0d4EcLa31+9td9Ix8xc/L3GTL2kKI+Hb9735zdTzTrMqZIMQCHGToBYi6GsOFyJKq+8aAul6LkDMdElkebrPvOy2Ei/tt1lmvs/n+ehnG7K9Zvi2SpKELA9OF9PvfXHHxFR8Eyl68FgOcBOM4hn5dH6Alfb666+vE0ObgPBG+fYsoHPWqRUQY5W1I+9mHbgap7Ec4KWjj5K0nNMQCOV4C6mJkIiBOHQrEy0X6ewCaHE4RFYGIgM/0CZwk7A14i70ByC1DR38HIBJm69JXnXVVRVcwnwuFY2S9pqf9MiwpBtepMrGygOg+KAcn5tyD8DMlkCrs+CDDmIZuAVx5j3d5F4UgNhmOJzu3EfJLwnmtYaRsPaj+sE8G77ZCTUeOBHCxEoYgiFWmmBMUOh4TtKS1O3MG3Df/OY316VTe1wxbjYkwShNntHgpKf2oWdKVbvMfJAaoPyesS+spxMv02UYH2CB0kIHezFhIi6aExp4gTfsyFbzci5CCFEfTjzxxHLyySePmLxJP91upwJXb7b/1G/sIobhx9CGwHryaA6xrN3T4+SBwDZln3nmmcUOq3T/83/+z/p5JPqfDjATBMyy5oqfYExgApcfYlm3bl2l63nnnTdqVUlT+jE9mRS18cmeCbQdy5HIhI70+GHUQ3OfpVKfmaD7rAM3CUsHs+eUdABUF8lAahjyWpcSNiVJvhOXBKYSyAvRVsfvS6xdu7bm+6Y3val+mMPx8N5hMvPYlf2km47uB1jyuw7PetazKp20HQ0t0nzta1+rwMMHkzwTvqkskRsVlSU/fLQxSJ7uAbqXh1Ol/6wBNwFryP/Sl75UJw6IA2iG8dYumD00fWldjriQzogjnY/NURcwBvFJXsfc6cckLAnA1kmKc5nfVIk139IBriHchUY+P+WEMd+QbhmZaubIvLgA62OE5gT2RqM1iZ2dfjz64RFVgk4tDyc6TJDZ5wkPql/WaUdpOWuTM402pPgBEDqtjyMDlMZwen4/l6CV9hOf+ET96VKzZScG6FJO7erNdFwza8uipK/OAdzZIcYjer+y53tYSjdtp4qZD6A3oNJjARgogQyIAQzICYbL4gTye9/73rpbT1r8kc9odMxw0vUNb3hDFRj4oSwjIVUCv3JUxdcdcbMGXNsVKfx0Ld8X0Cu50QCbhEhimSV/+tOfrsMdoGKC3osA8nAhMOLr9SSL9yQ8J5680q+BC+hPAg+YfJzkAx/4QB3SgYkQAGgjlQkuKYt+9gJP1uGN0Y9jaTAqEiQkuPxNEpWxo27GgQsolH0TKUPPBRdcMAzaBJ5GJKD4LZhziHvPe95Thx5xSQj6l7hcppUfKWNi8V//638t7373uysDqA0z/T2FWpE5/oc05QBTJ7ZZh8UFaOmf6WyZJCU5k2TWgpbeGS/pn8/yNJHL7Y74QaKz+uCpeY18bNFMnvXmkXmN5884cFWAqYu+qcIkrQZqSFtpYekyHKGpCO94xzvqzzQhbupb4rhP51keiCWd5xe84AXlgx/8YI3n98pIg4Xqkr7oQuUCVvwwdKMrmqXAoPdSFzhC4D/8h/9QpXIbxzt59TqjnhFPeeKzCaO7TuKdD6CsidHSvMb7rFdvPuM9b+P8eDGn8F7DKOhmmZR+vZtT2X6Nznd8jaILO85jA0kuTpCo2WD5tA3PPDMM0Q1NJnXW8ZnL8p0yFpJDN52aXZcN1pk2AOPQE2gBi7NlMod7cfzWhckVlwInaZ1+fRl/8jnjyTtHQnMaGPj85z9fT3UA71TdtqWrqeYwTjrLjyqfM/vs1WMl03j6kLQkppU0G3AMWfIiIZJACcR8znwz3GTBcKfzGP5642X8heBTAdh0LQ33gibpRTVjXkQrYGf5IXTQXRz0c5+X5/bqpaN48uFYgADXiih+mH9MlR8zAtxsiMrp3RoPeBMBrQZKL+0ll1xSJYRhzcfiWCJIBcNPuiwr02U4X3lAa1HCcKUjcFMlVk08D/9or3kGmtIx0XE0tYnFBsCpaOJaFCIwgJbkJDTy8uxC595rNDKZHJoQqkvq0dlpRkvTL3xGgJsFmYwxR2l8DkP5bjRfD2WB8E0Bv6VARbDr/3nPe15ZHeYtei0iZWMnAkIrQIhvZmvBgptIutHqOB/DgYQJDGgIAg4NXWiB7hzdlpqA7jo9MyNfHDxkEQB6fCBJXd5lXunXzEb5Y1VNOSQvXmbZo0TvGzztwE1A6JWWZQFGL5uMM/v0ITgTOkP9a17zmjpbzYmZvBAoXd6nn+F8YRhlaCSp6bsLyeEHXgAJ8KbKlrRJWuRw7syfeGhF6AAuR4Uw5yCNxeF7zr0MwOdSXmIg88YDV0plFh6WHnWSz1TcjE3O6KUaZqcSAqj0eE7Dgf2Tn/xkPclqxuvjGJYoDXVJgNHy6SVYxhNuomboM1k89dRT89WC8KlrwIgHRp90SS905TyTyvmRbQATH+0tINhXwkLEnIana8I6wFrA3MUERhpnnllG5u25vZe3VTX1SlNlppmIPyPApffQYUg5w8xEXDaYucRiAylhk8ZFF11Uh6V83y8v71qiiNMbhtAmGeqlfilh+uW3q4VRvUhGQOO0P6VjL91IQEA1uqEZEP/5n/95/aYDoLWO6iAOs9orXvGKaqM3uuKd9K3rLUeHYL1geuN6+dWm7Xc/Mvd+MSYRpnIqgDDrYoXMpMyQ0Lp+FUREaWzMAFxLkVbXXvjCFw4TO/OQ3jWeS0JlnRCZ1DXpIIEQnJtIXuOVNdffG/no9pZ1uaSN+2x/+oZvFh3S2XKtjg6wwoye1C55pR7Md9rYPhGLTC95yUvqPgjgHa1zKJeEBm786Ad0ccZy0wrcLEhFEIB+1Dt7bYkmvsaJbwi30OA7ub7xRUWwXNjbc7OMJHQ+j+aLp0z5GMoQKiXOaGl2tXD6KZ3ViiPXS7t81qFb4JLUeGOJmFTFF4JIfoZ4y8Im0ISU+1QHX//611ehlbxOHrR0pbYJ1yHmDHA1QE9UuQRev8priLgkrF8htxeUZLRnlJoA+N73pvXsmozTgdSHuYe1Q946TRJ3MnnNp7g6qwmpDtsCN9uddPRMspKcAMwBqvnFS1/60iqtjVJULHGpHuYx9oYYJe1DUY7FBcu+r3rVq7bjW0u3rAvpDbiTdTMicVUizSm9EretIOAYxij9Go+4AOsT87bYcb2gbdNP5h7BAVe9fMLTsNcL3GTmZPKd63EJAhMroEuwoGlKxwSuZ7otKxC7N8AzQ/7pn/7pCEtEthdf8Wh1mCjl8d7YSWbiBrxOGtuTYo7TS+NMz/fOIsScAa6GqBRitGAQ7rklFtXAx9wQF9Fe/OIX1yXGVjcWP9NKn1dLhIncUxE4ehqLBTCrYxK3retE8psPcbTRBDnb2tY56Yi2aGBO8u///b+vlgXAZS1gPiMVAVUccdEs1S18MhchcVmESGsLPS7AT9oqV1pOuVmmek2F7jMicVVKDzcs04cQISublecblj772c9W4GqQTd9+SjTX0IVx0iJW2xGkz7w6sbZNOnrDvafjkSgAaxVusrblLGM++kYacwg6q5Em6Zh0Ql8XCbl27dp6te20VNu6BLAweVEpLCPbDwLA7Lz2XZtg9xtxlZW6rbx782/LGu1+WoGbhNCLmJ6SQL2Fi6cXA609tu5NxAxLiJD5SJf3hjwN1tNd8lbORJ0ORE3I3VDSc/LPMiaa13yLBxjmGjouh245KwWB7AAAJApJREFU+qBp237P6ZJ/SaM2njiekw+kNasNZ+in/46mAgA+FUFZhNpk+FgLiD/TCtzMVEXsTTDzBBiut9E2ewCuZdg1YV8kbR3MIxkRNYniXq8FbkQS7hJOopPOeq8wzEGU1iGOsIxvJEjbcjJJ2rzne55PLuufbWjrru1oRL81YU6XcbOt/fLopWXGzbTpyxOPEoB8PEFzLvOuD90/FjHwk6pBKE3WzQhwVcJsk6kEuHJjsXCNBWYTMoo8oLp8A+CNb3xjvU8Aalj2aISgN4krD+aXv/u7v6vDmzJ8Q9ZOfvsiWoIqkyNtDWG5gpZg9q5ffOHzzfUDiDZQi6gLuSKGpum0XboEZfr5vp/fltMLbvEzz350zfzVBS+NgFNx0w7crDQpCqBWYgz/wJgNASJDCSsCR9dlEkNQDcuem/HFcd/2YJM6Bm89Hah9P4sZBnC5JG4SSg+n4zkkqC6juYw/2vv5FJ40MBl1WUxA+xxx0BtdXUY0PEEjfAN2q1vSZZykTfpokfeZlzB8UkY/UGd8wCVpU6gpYzJudA5OJpeeuIBneKLnAq4hyqQgnfcAp3EJ3qx4Ajyfk2i9UiLzavWojIM40iWRMAJDvAdcLvPPfOazr13Z1mx72x46LoAYlo1U9hcAVdKLb7eWo042ONE/HSt/5StfWfd1AGLm3+bb3hv1UofGQ/sPUgVIWmceynIRNCxJU3HTDtwWMI7p5KZkwM2KU8jtqAcowEXEbFxKw3zmuxCTlCWdgVWnkIehH9H8Nm4OO+InA/lAS9/GvNztlMzOOmX8qRBxZ6dJWo3WFuEEifaztaJVxlV39CdMLEBcccUVlb74YNN3bkjyPnnR+sJJcdKcKsYpx57flOzC2jqS7Jx5kDnHVNy0AzcBwLdMqIcb0lXSqU/hiPKa2KqoR3tugeteWK+zUPGf/tN/Kp/4+Cdq+ifHkZw3/u3fVjXEMCfF0pDiSaAkrrzSRLM2TD3plDOfnIF0e6p0WqCNvTTrfTbrZ5d929veVgFpDgJ0hIC4Oj2g2uBkGHc5neuHUwiaVk1Tqo5PR6U7EyjMX4BrJCVJSXX5t0450rEkMZ+lEEmetXHHu58R7qkIguhxJk16pIkYp7GcBhpK+HnvGag1uN+l4UPRcNeiAJ50AIh4u+8ey8uRzruyNey+Ub531t5TVcGs+ehS+0t/sm3AD7QzSqW91bAuLMHEdz4vN/3buWUzvyVcLvmBpi60R3cj4Lve9a56lB0o0ZiFSEfhEpTSK8NyOz4D91SlrXxnBLgyVklOL9ezDA8aqcEaowdrqMt9+yxMnLwyjhzluzgu9zpHpovYNWxRcNe7JVHOlnh/VUgCOh61Qtnpsn75nATO57nmD3XIGa3s75Jm/d92Qum4559/fnnwgVC7YiQ0UhEU2g5YVDt7E0ymCRgS18anj8Zh1VtCAFDtlIPuhAGTps9c2WNCQlMHbchxEBO4K027nQafxCGZHVqFCWXKbypu2lUFlUhQqBRiIYgtcvYIpE1RQ7L3JkDbBlQ+dcHvflkQGJGlycYqZ8nibcPR0FAAHoCDINy3v/Xtqv+eGGvqR3WtDfXFHP7TD5gZxkeLfM5moEPSMGmf79L33jvgevSjT6nLuqtWrionntSxshipSMLnxT4RIDWc3xiWnstC6t4Zc4Qf/fBH5ZHHPLJKWYBnBWLCvPzyr5e77r6r7BW66tmhir3gec8vx3RHtsrD4JcR8Kbf3lh+8MMflD3Dnnx6CDOjcR05o4KEzVguO20bZ0aAq4AkIIIZNgxNbLeWBQ1XAA2EvXHzuTIp0lYX/hJxwwda0kDvr2UkJ/XciL54UZzlf3hDuelm38n6STnt1NPKsY88pqoWnczm/t/a6sr1nrpGWJciwy+S6Unv4Rc9NzUeegZ4z3jCE8vdd91dfhlHo5YHWI89/rhKn62bNgeQTyqvesUrYyheVC4JNYGUvDKk5A+u+n45JKTkygCcifKdsQH8oQ2ducVhBx9Szj7n7PLyl728qhvKqBXlh7sjJsbXXvuLWqbNN7uHigHM4nSj9NR25KO694J3xoCbRWdPtyoGrBYlzPJtwMj9Aoiel/jDrrndSm/dYpm3MwPWW5cESLmhrqqxNJiwaeOG8pMA7KVfubScc+455fjjji8rVgWh5pPrB9px6j8ecIeTo2/Q8LwY0n1jwaKO0e/4kLyEwuKg8ePPeGJd2LHBxsdDTLDX37c+5gtha+9mtHxpfK/toIOrUPLhlRfERpvjIn5Ioy5oOxHvuPW28t0rv1sefujhUFPOK4ceHlsBNsdo2+X5cL0meTMrX2tM8KqbhQAzWxMF+25zwQDR+oI30uhxGwOQ73vf+8rXLvtalbZ+KvTVsefzoMM6h/nkff/6++rQRqoj5mlh9qljq5c9bkQH6Xm3Mx/11V7pMlZ90GYiOK8SNzPqgtfI5FcqfX6U+erpz3pmxuj4wZPbAnjX/Pia8t3vfLceXr13/b0x3O8ZasMxdcg/9bRTyyOOiB/3DsASICbNgcqaft2vri+fiPODB4et9tynnRugPbyQ6ouj40ys1tuq00uTWQGu4hO8wEni6u15SoLqkADOqo4AVuVmx5b7UAxTlPq9Y0Vn8W6dyda9MezRtxz0I9WZYkiLWmZDyL55Z+Ac8ScM3IhY9flJALfCydgcwFUOXjwcFh/7Ra6IhYcNobs+7vGPq7bb3YOO1cVIZ5LLMkRFSwGDB8xk9OLF5hRdsFIBfh180CGcJzsl9OmTTzq52nYXidMpeNLU3mnAVVNASr3Wihqguei/JLCJgxmt1ZTxhr6H1t8floobwnZ4a1kXR0cQha2YSnJE5FGHrJAYkVH36tBqRIeYNPlmPgG+9jJpu1IjUoVe+BWMESH97eIKqPFqog5d4SfTRsfeFPOFm0KX/fFPflzpuddee1YeHEQVCL7svV9n11ffvCOQFL0pJnR4entcFjJMvkzK16zpfNq0SuJa6Jg1Ha2I7WgyaxK3rZFeq8dS8pnJAM8CgxUwa+MWKpbbirdsaVXkV4UyvyF0JNIWkTdu2FgevP+BumlZR0DoI488qhwZgN1z3306QA1ikgLBn8rVaiyrDKshbXXGvW87UXs/bkJF6zjhJtph1G4YuCRjt7odGVmzGpHXZFSFWpOoT9apg954NiqFu+P228q6X68rt952a1l/b5zN27ql7irbf/8DapkmcgApvv0hG+PCy5yskcx2oZm7rF69ugqSauEZ6kycqxDpNGHSf4dp0k2504CrfODlDEEAbNmQfRAhNkYYZi9fsbwS4/4A9aaNm6pkWRYTg1VBwP33278cEcr+0WuOLrvtmUNbZNjhQ817uv4MxaQFeCrTg/kJ/w4s21LyTSnX/uLaymAjiE3aCZA29jCIuoHbUkdAtF9JixYFnbYvqM1m6vfRLuBD6yVd1Wv93feUG2I0u+nGm8J6cGeMiMGPmGOgO+ACILWirrqFcFixfEVdTDjo4IPK6qMCsEyPWd/Iv7pIsyNuTgA3G4BYlWBdAAtHRPsXTOJc94casWXL5lCdhsoeoXftu0/8NFEsT+4VE4Tddu/uzN8c7I6Zau3RGBHAly/TWAcI/nbK2kbRbYRElAQM+oYMqlXcEqFbQqQtDem/bHnsGe3GG+oCt8aKcka6TlmY+td/+VcxmvymPPvZz45Ty88qywCjh4G9wM285F3zD6n30PpY5dock1f/amD6Fds1Xq1F1iUeRKthcWNX7BZ+XDrfULSptjGel++2fNsJBO0K+i+OkS7d5hjh7PO495576whH12WFoNsaHdnl944RctWenRPE0g3hRbjs5PVhB//0AndbDXcw46kk1zBXAlgenqkKrjEdJiEQeyAX4N8QQL/i698oH/nwh6taQaIvCYmwCKNiuKrSC8siSRhkytZqTgtwC+i6Smxsj3ps2LSxDC1dUp609qzy7/7oj8puK+JH6EKAyKtmEmm2dKUVlESqWsZQdLR7b48J6Bf/tdweI8iTYvK5KMIWbe10JPq4NndcN1V4QhZ1O1usKdUyHrz7jvK+f35/+e4VV5ZN0RnCBqhqUbzYHRMh3aICUobD+XoIh75xbY3hfai2N1Ypt26Ma3HYb08qv//s55Snrn2KnLrRI34AMxJG0thXEgBlDXCN67rStUNDWWjbzLidCty2ScONbQP73Vd+xx//gzCLgpHVhb85Am+/567y02t/Xh6IQ3sd5oYEGYov15RNZUn4gPdATOzueXBjWbZqn7L7nnvFilzsccC4brfuFBE/Yh3SjgryiOMeVRYvbXfpA5VSY19FpN3eLS93XH9l2fC728pzLzi/POPstWX5ZHdBAelQdJwHw2Ly7W+Uy77yzXLoI44ou61aUTZvjY8lR/nLl4ZOtDV+mG9JHGsKWmzcHJvy42pBbA4wFO1atChWHmPJe8miyHfrhvLjX6wrt9x0T5zUfWx56tmdFug0LfCRo0ND7z10W1oJ1L1PT4eZQaBmMenPGeBmhfjbpFEntBGIw9HQruIMvYSG5F2xx6pyxlPOLPvsv18leMiZCI+f+BzaFBDbUP0tD20sn/zYJ8ql37qqnPX0Z5Wzz3966NCx/FglTuQU+VUeRK5bgxFDMbwffOQRgsuW+LPETUjiO26+oXz18m+UG2MzypYYxlVmcSSMb0mWLTGcXvej+MbWzb8r1//kp+X97/rnsteBnQ//VU05iokUUUcXsESni7AtIYlPevRp5XFPPKMcvG8MvQAa4FXeEYcdXv7oT95Qjj019hMvik/Ub91cAq5lxdLdy7U/+2XZFBL90EccXg4+9JDIWyU5I03AOMoY2moDUqg+G9YH6DeWv3rz/1duvCM6xpaO/jwCd5G80rbmUDPq3HWz7cePjDVb/pwEbm/jEXEEseI5eeMdolcmrVhWDltzZDng8M7HPhZHuHnakmB+WCwjSoDg/ofLt7/3/bLsmuvKo045vZwd4N17b983s2stgCqvyLRTRJxto2rEHgnl0ErimGHcbA7g3lz+5eJPll/8cl05ICZe1JKhkNCLqREBuA33PVD2P+LQctcD95XvhIF/Eeko6/o3/LjRpsXKimtDSMp1sZ7/9AtfWI4I4/7+++8RHS0iixSjyap99irHnXZKecxZZ4RgC6sMiRzSdMvNt5cvfubzUas4pXvwAbE4sCo0qBhldLo6m48uqfJLl5dVMS/Y68ATIt3mcuTFXyh33n9jtDPedRrbrVlt/vD9XL2ZF8BFPLQf4brExlvo9L7ex9C9NGa/lefxSrT4smsnkrOhgav7Yoa8eUl843XV3mWZScXyeB2Q5Npi3CeBNofkDlkaEUjXuHvw4fK7dfFzS5uWlLOf9NSyVwBr8xZWj4gTKgn1w/6KzQFmevCIvKOyFbQRe4lXAbTbYlHmmu9cVe6MlaoHNkX9AnhdrId+Guq8KwC8ISoVW42io0RJt91RPv6xj5UvfvZzZVPU6WfX/qyuJFoaZwHYEp1BHR4M0+DQipXlpPhK5Wtf/qLaXp1sqyGkEq1Wb179Sb7Mq0r3rWyXAfQ7ADNvpttVyAzFLxp2AbV54+b4SuDtdYvj8phssVZsCT1xaMiGEfqg7SXhIj++fNwNLTYAy82LCI3gxQGOE045obz+T/6fstdRcQTFpAYiA8CdxBE/gFMjSyCwivTGJ8Zj5n7bz39ZPvuZfykrYjJUdU29UZq4qlSUOqIuifSLo/Pce8ut5fLPXlLe+rZ/DCvLAeWAffYud913f7np6mtCQC8Ka0F03qjP+rCP/+yXvyoPhUntuXEu77V/8PzYahdTvwB3lciRb8epX21d53GO/53XwDWhQ+6qE3cBUSd5cd8x+QSn43/9ww8J8/BDG8K8c2e1O+6z914hmRx1dwogQAYoI1wHNMBb/9X3tSvUbGOqFyampWULc56kAe6O3wUd8NUAmYrQ5B9SudZLmqjX1q4kB2xNqdWO9J0WdtLRr1cEAO+0yTtA+86/e0u54867y8sv+qPyghe/qBwck7eyOdQheYeKE+gsl3z0Y+Wd731/WR/FnH3OOSUaHlrRQ1W1qauY3Sp1ylPP+eHmN3AxOLhMn7PjaXRHDQh9YGnohZvuLHffflc5/JHHlyMPPyQkk1TIMB4pQgWp6kTkUeIXxeMfCDOybYG06gIwJJkVpfquC0L1ox7UOExTIcFjqN/NTreK7Ygdvvf1ivgZW4jOqAhRr/7B98tHP/iB8oNvfKP8/vOeW1bus1/5UGxkuW/jQ+W1r3lNOfDoo2sp5d67ygfe877yrnf+c1kZdu+LXvfvyotf9OIsIeas6qaWnboT/PKfL248bs3Zdhg2ucrgoP/dN99SdzI9/OBDlfud1wGyMP+ExTYmOqFAxG6o3/5qXVkfwD3k0AfLL350VWzji4+JgF+8r6pC/O2ArAujAByJuzGU0X0PP7AccdB+ZXnlMMZ3SgnoRk02l/tuu6V87ctfLe9/9/vLAw/Fx9wqMOTDyRfco++E+nBUmNgueu2ry1lPfmIXMfFGHSJOTipr62oyqYbKfQ/cX35+zVXl1zfeUNY+64LyuteHbXlZ2BaWDZWvXvrV8re33FDOf9r5sTizT5xauLhcevnl5VEnnlBe/LKXlbNjJ95uy6PzmqBGXhZWWqct1WzWBs7h+3kJ3GGad/iJD+Xyr3y1/MunPl03i9i1hOnxharwNtaZ/pIA4OIYkjc9uKE8eM/95Rdx2vXWu/6x7B5r6/Izu68zPACLq3YIZqTKvLBJLN1anv7C55QLn//7scwcv0Iz/C8i1GE/jhGF1Lv1ht+Wa678QTnh5BPL6lj6lA/8yrUCJiwSX//+D8pDIeLuvLPzNe7Oy+geAR7xALcTvyYa7iAr41yd3xw76ugj45sHR5SVB9nSuaS89CUvLJsffqB88QtfKt/95hVl9+V7xTGp35UnPPWs8rKLXlueHP6qPesMNIaI6HUkvlGg879TiPYovy24+2YuevMOuCPo2jwsW7V72XP/fcveGx6qE6+61S7st8xci7s2z80hja9Zd0NIzyVlzSOOKvvFXt5FsbxJMmJk/PRfBXEVlN1RtOI5ctktJO6KMP4vpjuGE98V87q6lAoFVqY2hV106W57lnMueGY585ynBEhC3keHWRr+spDsmwPcd775LeWWWMbtGhvkNoxUueelnI4LKRzlWjI+7fTTyumL/YZFlPfgfeXOOFn7ix//JDrsLbHnIyT2Yqa7MJ/tubKqIXfc+rvyyziFu09sPtp9+bKyR6hGK1eYnJnAbnOdjtoZEbaFdu56F4fQZFh49Eaeped5B9yW2ghYpUZw4IyzziyPOuH48lBsCBFeDwGGPXUoZvjLwqqwIoz2t8QPz/3Nm/4hTEq/K89/yUvLE+I49tKVK8qDAB4ApsMuYWEIPbWiKvLdGhyS35aYPO17wL5l/wPi1xgDcWQjgGA/8HJhPY0rzGy77VWOPfHUctpZa2v4tj+R4ab7y6Efvrjc8eANIeG2aZXdLDoYjmjDz5EYnKKouipm89EDD6wvd8WZr9/Eyemrf/Cj8rNY5HgwOuUZT3xSeczjHh/7ZFfGqerryg+v+XG57MtfLleFHXmP2EG35x4ry2EH7F2e9pQzyuYwkXXKiMLCue+oPgHhtvD6dvs/lfbbBw+HzDSw5xVwW2K0hHO/30EH1muYcsM3dLqIwDYay7zrH3i4HBYTmLWxI/+RsV/0rjtjA8mWjeWw1atj+rYNSMPJmxvTsUVAvuHBGorl9aq8x+2QwHG/Jf5sZhqjQoQU3rwplpzprxY5Hn4odow5LSuLTprq5b3gmmvjR542H/n2rOPdV3wzjtzEhzvo9ffF9sNjjj6mPOfZz42l23PKwcccG51wt/K06BTXxjmx78Uh1a/Hpu5vf8fB0XvLvqt2K8etiZMIkV8rSdVkPrl5AdxK1AqOYGkfCldAh35Wh79giKMhdQ9DSNoSG0oioDz825g4ffWK8pOfX1cuih9Vtu5/9ZXfKX/31n8ov73n7vI34T/uhJNiwSC29wWIOmXGogOJ618NiEUBN926iET2dkRUgL5GisAY1quqYjtiuKVLumSWLlSGqma4z3w6pYlanaJCnnceut7yAOO1IWGvvPiqOO1xZTlpzZryorDLnn7q6eUf3vIP8RXwS8rVoTIctXpNbKQPNSj20D4yQPzS+DGRl8WHV+4Ke+5Pf/rj8vOrr4ojN6eXj3/q3yp4O4VoQpQ4XJ8Mnbv+vABu8rAfGVspXDeU0EExIf4N7+KKfby/+MWvymWXfys21ewdk5W1ZWUMm1s2x6cwNz1c95qGFtnJvhknO0Nn5NPVa+tKU43VgZZbKgOY1ftgPBPT1rALb47VOVI+kBr30RlqtaIjxb4G0nYERrqI4QGQKnRylLWYMakMFcGPFT7hrN+L/DeVU2LUWBFmrk233hEfUD6z/PBHV8cXe35a/u0rl4ZkfSD2Ma+sm/EvePozyitf/epyzOmnlDNDzz3zTFaMsEB3aTSiHhoxT9y8AC5BhpEtkStj24B4m1Kxgz0xJFxS7rnxhvK1b3y7XH3t9eUpa88tpz82DlHayxsSmSmsk3G969zXwozlQNsp2+w9BHcExfCfsOoU2H2uiUK6xumAhx4o//TWt8YJ2Q8FkKMTxQYXtubFYZrbGmrJpd/6Xtn30KMiG2m6TkE6z3Cb3Aw/1Ei7r9i9nHzKKbFgEr+iE3uW74+zYruHPuszSeedf0F5ME6J3BMb7u+5Z325NbZV/jC+heBIlJMLtcqsLUaBLR2TYafkkWV0wub+33kBXGTcjrzbBYgFqN3IxBdgxRGfb3/zW+Wyr4eZaO/9Y9kzVpjiS4IigurikGgVP10QVoEtq1pidIbQVe+9f3353a13ximGQ8r+dcO0QtqrJqgptoYFY1NYDjaFHXfLgytDM1gW2xs6k7ktMUG04+GkE04uR8V1qHooPKqqNqlzDqsJ3Tp0cu80Z/luK+NozZ3l0ksuKd+NE8+HhEnswP0OrJu5V4Zpb1Vs03TaYvWao+uXKffae5/OlzL1Q1XuHmnyYHUx+15fcmbBc9CfN8DtpR2Ct2pCh/URy+wIaInH2PJ/7fevKV/4/L+Wm+I81dqnP7Ocde5ZASZcJN8oCCEJI7P4Ilb8i+QdHEUW8U4Zsbfhzli0uPgTny4nnh57V5/0e+WA/X2MuEIt0jKhdaTl4thFtmrfvcojjl1dnvH855THPu60MM0tDynrPdSEDSKsEw9FvfbY76DyyKOP6IbLa5ur6kJ9FNp9Vyd34LUljs1sKPfFUfxbbvld+e1vbiybN8TmnmjvspCoK8LWu/e++5dDDzu8HBIf6tgjgPzz+P2HDpBjZ9hunTxrgbXQbZCtNN1WjTl9N2+Bi6opLYYpHGCrG5/hMrByz7rflos//PH4XtUPyzExIXnBy/+gHHTIgaHT3hcrTiEJgTP4ZjKWHxeRV51wVTEYnA2d9J4bbiqf+MCHyq9jgndsfOz4gFg96wCqA/d6JizysJhx0mNOLa/4w1eX8y84r6wJq0WtiEz7uaqNsFCQtsDddRVLUXYXU4Sy0WFZqCECnYZ+7nOfV54Ye3d//cv47d1Y9FgfG2zWx+hy+x13lusCqFdc8e26M40+vW8cr3n2c54d58EeEbp91D0IZxumDpI0rP42DGdN5qw/r4HbUrVKX/bXyoHYG3vzneXtb3l7+dDHPllWxyeGXhyz68c/7tRgeyz/AkCAwWra0rgJk33Yb2PiFK7yjnSL9/VPBGxc/2DZcP9DZd+99o3vNjhb1R3MdZQoMuXlyr32Lo9/8lPqVfOKyV9EiauzsJEA7OxAQ/rQl8PKUEIHtmd2U5RZlwVyKAnxvyTeLQ1/abRtRQX3srDTxub2NXvFdVw59RwlNS4+mHxHbGBf95sbyn1hPvvZz35ev/O1Jj7asTIsDbVNoecui3I79WnS1tZr+Nx3uwRwk8+x6hA21q3ljp/8rPzd/++N5YOf+VQ57ffOKK//f/+snPusZ1S2kFmLqnkqmBcM3C1AtSSsAFseXB9vmMICaRW1YgJVLDI8HPtZA9d7rNwjTrQ65SpmxA2ptSJWs+ouq4htz26snYWWgqykmdzo0F2QVBRHfnFCgoqx2LEfm24f2Fiu/81vyy333h3gpXfW7hOFRLfasrSsiFptCEBe+bXL4wN0t8f76CoB9NoW+atyAFE9XMqLv2VVbNs85cTjygnHPjJGlKXlyku+UJbGBDHWCstvfnV9qBidfQtRWbWNP9kFhcxtN++Bmzym294bzP/mly8tnw714MpvfKecf94F5SV//PpYs39y2W0lqRbMGBYoi0Ny7V6/qXtvgOG6n15THn3yCbFrKzTfiEjHXRYC8Z4bby5fvezy+JLLw/E1lgPjFEFH4pKM68Ogz6if+1rrYcQAjZ1XHWgHtACxLTbAff1114YK89Fyx223x7kxvyi0ofzqN+vKg2HmetSJx8eJCsd8oqJV4Y7vCMcE77bQZ9/+1rfFSl+Y8WrH6Uj9+reDucAd4AWg47174r6a9LyPPQpopWPtFvsjf3P7+nLosafU07pRWKTp5CfNfHDzHrgVFUHrq8Pc9cVPfqpc8bVvxM6sh8ozXnZhufCVrygnPOb0svs+3WPswxwJpobbN/YqHBVqxNd/9MPyjtiQ/b1vfacO1Z2TAaH/hhrwQJiWvvONK8qxp5xYjg9gr6xWhcVl1d77leMi7PBHHBnHcjrMdhw+XeU/8FQohVTMFxFnxcpV5a577ym/ufHGDmAC6LvF0vNrXvfa8rTzzi371RPOULakbIx9DnfGcu5QTLzOWPvUcljo2PBcgV3zb/LuljHcmStxOjUgod0tDsvGbnHS8mOf+ULZEMPIhs1xpMkbwJ0noFXf+Q9crQgRc3ccebn5VzeUPcPw/vTnP7ecG7P6Y02O8vxL4IBMqcwJJi0Ke+yehxxczjzvaeXu2N/wo9ixtS4+4FE/jhGArboyIMZwfuxjHl3OC1vp8ScfX5bF8EsqHXbUmvK6P/53ZXmoD7vvqWN0LBTDvAcq5agfV7HdCTv40MPKC8Isd3d8W4t0F3V5bBJac8zR5chj1nS+vyBBqByLIv8TH/u4sn/sNHtJdMSjH3VMALeT63DenRKG/wof8a6CNqsQ+ntoKJti6+PNt95TDj7s4JrOhNS/EemGc5x7NzvlSzbTSQaTI8tSv/7hT8rPfnB17HzavTz5vHPKsgPiZ47iQyHwUofQKgxjahaArXx36iH0wdg4UH4XO6t8KzZ/NYZ0AkDvd4svtzg1/MhHHRdSNj60F3ptfWk8bhzAV1eD/ekMvRkrtyx2KhSve9J3EvtrgaOiPFQF9dtUboiFho1R39VHrylLJ3vMfVvG3Tt5bw1LxE0xeYtf2owPrBx88IE1TISqYrhpXL+w5nXf221Sv+/rSQd2+95wuvkP3C6PK6+rctdpW93hFQj1ugOjbpurzhmhaTkQXIf4AORknWy6JQwPs1FYp0odyG4Drsx7JZqYcdUKZsxO6poJbqlb+yrq3Ymx7W83xYja16TDL2TQzacOCTGx1Gm7zvkznVH02qm7Ej3fD4CblJgJH9W7jKpfikn2dsdurDNwd2bsydGOX3FReZfhnQp6khzc9Il6RKgyvNMhtsWqOWSJXb8TJs62u5H5b6vwtnCSqhMfsOJu26tOcRHQK33aKPW+6bDbp+9k0xkBIjbAdmlUUdsDWrEHwO2Sfsa85OA2pPQpKiNt8zuaqEQZlhmkL5u4H2awmOJ638bphIrNZW7u21ieuQ4AR6apx3ZqwgBum4EE/TIRHq5Gjfe9STpvI2n3hTIBtXa9GpYpwu+I20wy7M9F4O4ak7Mk8RiMzSgjuY9pmSgZmDETBW14J65FjGE3nEUn3ojc8iEit7kMp63hrfRu33Tvh/OvkbdVtyeqovSrpsgRMTIcgFPZ2Ba5rV1b4Igs5tTDrgXcSZO2w87KNlIoudvALOXh8Ksoo0ovAV1+dywV2xeeUm77N01I5NPm7c2wfupF78vhpC3YuuBv47av5dnNqie4T2ibyXBhk74ZbsOkU26foDMyjQyf95Ozkc2Z6lPAMzjaAe72rJVrVSf6UbBb5BivplqpbjpA6lcnYS7vxwNb931Gb/KrHVPju3mN2DMRoXPVLXCJm2wJWFbeYmB/N8zzfq/Hw02/NBMOG71O4wM2C+nWvk8ba9DwUDOjDcnKTIs/AO4kyDhzUnUSlRiOCmRjdqfhmJ2bsTpAT9R58LjNmDcPKjuoYi8F5o+E7K35jj4PJO52FFxoYJis5N6OYDsl4P8PaEHvGHGGAqQAAAAASUVORK5CYII=;" vertex="1" parent="1">
                    <mxGeometry x="80" y="310" width="174" height="256" as="geometry"/>
                </mxCell>
            </root>
        </mxGraphModel>
    </diagram>
</mxfile>
